<svg width="40" height="40" viewBox="0 0 40 40" fill="none" xmlns="http://www.w3.org/2000/svg">
<rect x="0.5" y="0.5" width="39" height="39" rx="19.5" fill="#ECF7F7"/>
<rect x="0.5" y="0.5" width="39" height="39" rx="19.5" stroke="url(#paint0_linear_140_972)"/>
<path d="M27.0653 21.2889C20.8285 22.3147 19.7197 23.6176 18.8881 31.2129C18.8602 31.4625 18.4997 31.4625 18.4721 31.2129C17.6405 23.6176 16.5317 22.3425 10.2946 21.2889C10.045 21.2613 10.045 20.9011 10.2946 20.8732C16.5317 19.8477 17.6405 18.5726 18.4721 10.9771C18.4997 10.7275 18.8602 10.7275 18.8881 10.9771C19.7194 18.5726 20.8282 19.8201 27.0653 20.8732C27.2871 20.9011 27.2871 21.2335 27.0653 21.2889ZM29.7267 12.5294C27.7858 12.9177 27.2314 13.5551 26.899 15.8282C26.8714 16.0778 26.5109 16.0778 26.4833 15.8282C26.1507 13.5551 25.5963 12.9175 23.6559 12.5018C23.6087 12.4912 23.5664 12.4648 23.5361 12.427C23.5059 12.3892 23.4894 12.3422 23.4894 12.2938C23.4894 12.2454 23.5059 12.1984 23.5361 12.1606C23.5664 12.1228 23.6087 12.0964 23.6559 12.0859C25.5687 11.6978 26.1507 11.0603 26.4831 8.7873C26.5109 8.5377 26.8714 8.5377 26.899 8.7873C27.2317 11.0601 27.7861 11.6978 29.7267 12.1137C29.9485 12.1689 29.9485 12.5018 29.7267 12.5294Z" fill="url(#paint1_linear_140_972)"/>
<defs>
<linearGradient id="paint0_linear_140_972" x1="0" y1="20" x2="40" y2="20" gradientUnits="userSpaceOnUse">
<stop stop-color="#4E9DAB"/>
<stop offset="1" stop-color="#336C79"/>
</linearGradient>
<linearGradient id="paint1_linear_140_972" x1="10.1074" y1="20.0001" x2="29.893" y2="20.0001" gradientUnits="userSpaceOnUse">
<stop stop-color="#4E9DAB"/>
<stop offset="1" stop-color="#336C79"/>
</linearGradient>
</defs>
</svg>
