<svg width="40" height="40" viewBox="0 0 40 40" fill="none" xmlns="http://www.w3.org/2000/svg">
<rect x="0.5" y="0.5" width="39" height="39" rx="19.5" fill="#ECF7F7"/>
<rect x="0.5" y="0.5" width="39" height="39" rx="19.5" stroke="url(#paint0_linear_140_1075)"/>
<path d="M20 13.211C19.2361 11.5902 16.625 11.783 16.625 13.7934C16.625 15.7182 19.2822 17.6431 20 18.125C20.7178 17.6427 23.375 15.7179 23.375 13.7934C23.375 11.783 20.7639 11.5902 20 13.211Z" fill="#FF8088"/>
<path d="M19.9893 25.25C21.0248 25.25 21.8643 24.4105 21.8643 23.375C21.8643 22.3395 21.0248 21.5 19.9893 21.5C18.9537 21.5 18.1143 22.3395 18.1143 23.375C18.1143 24.4105 18.9537 25.25 19.9893 25.25Z" fill="#99AECC"/>
<path d="M24.8751 20.375L24.7443 20.75C24.3351 22.3861 23.6219 23.3296 22.6416 24.7017L22.5865 24.7786C22.4825 24.9244 22.3452 25.0433 22.186 25.1253C22.0267 25.2073 21.8502 25.25 21.6711 25.25H18.3183C18.1392 25.25 17.9627 25.2073 17.8035 25.1253C17.6443 25.0434 17.507 24.9247 17.4029 24.779L17.3478 24.7021C16.3675 23.3296 15.6543 22.3861 15.2451 20.75L15.1143 20.375H13.6143C13.7953 22.0038 14.3784 23.562 15.3111 24.9095L17.3643 27.875V31.25H22.6251V27.875L24.6783 24.9095C25.611 23.562 26.1941 22.0038 26.3751 20.375H24.8751Z" fill="#99AECC"/>
<path d="M26.7478 20.4163C26.7538 20.3638 26.7486 20.3107 26.7326 20.2604C26.7166 20.2101 26.6901 20.1638 26.6549 20.1245C26.6197 20.0851 26.5765 20.0537 26.5283 20.0323C26.4801 20.0108 26.4278 19.9998 26.3751 20H24.8751C24.7973 20 24.7214 20.0242 24.658 20.0692C24.5946 20.1142 24.5467 20.1778 24.5211 20.2512L24.3804 20.6593C24.0081 22.1487 23.3649 23.0472 22.4743 24.2915L22.2816 24.5611C22.212 24.6581 22.1204 24.7372 22.0142 24.7918C21.9081 24.8464 21.7904 24.8749 21.6711 24.875H21.6613C22.0329 24.4637 22.2386 23.9292 22.2388 23.375C22.2388 22.1341 21.2297 21.125 19.9888 21.125C18.7479 21.125 17.7388 22.1341 17.7388 23.375C17.7388 23.9514 17.9586 24.4764 18.3163 24.875C18.1974 24.8747 18.0802 24.8462 17.9744 24.7918C17.8686 24.7374 17.7772 24.6588 17.7077 24.5623L17.5134 24.29C16.6232 23.0469 15.9804 22.148 15.5987 20.6262L15.4674 20.2512C15.4418 20.1778 15.3939 20.1142 15.3305 20.0692C15.2671 20.0242 15.1912 20 15.1134 20H13.6134C13.5607 19.9998 13.5084 20.0108 13.4602 20.0323C13.412 20.0537 13.3688 20.0851 13.3336 20.1245C13.2984 20.1638 13.2719 20.2101 13.2559 20.2604C13.2399 20.3107 13.2347 20.3638 13.2407 20.4163C13.4299 22.1066 14.0351 23.7236 15.0021 25.1229L16.9884 27.992V31.25H17.7384V27.875C17.7385 27.7987 17.7152 27.7243 17.6717 27.6616L15.6186 24.6961C14.8031 23.5161 14.2641 22.1674 14.0417 20.7504H14.8483L14.8806 20.8411C15.2871 22.4686 16.0003 23.465 16.9033 24.7265L17.0968 24.9976C17.2361 25.1915 17.4195 25.3495 17.6319 25.4586C17.8442 25.5676 18.0795 25.6247 18.3182 25.625H21.6711C21.9099 25.6247 22.1453 25.5676 22.3576 25.4582C22.5699 25.3488 22.7532 25.1904 22.8921 24.9961L23.0841 24.7276C23.9874 23.4657 24.7011 22.469 25.0982 20.8738L25.1413 20.75H25.9464C25.7244 22.1671 25.1854 23.5159 24.3696 24.6957L22.3164 27.6613C22.2733 27.7242 22.2502 27.7987 22.2501 27.875V31.25H23.0001V27.992L24.9864 25.1229C25.9536 23.7237 26.5588 22.1066 26.7478 20.4163ZM19.9892 24.875C19.1619 24.875 18.4892 24.2023 18.4892 23.375C18.4892 22.5477 19.1619 21.875 19.9892 21.875C20.8164 21.875 21.4892 22.5477 21.4892 23.375C21.4892 24.2023 20.8161 24.875 19.9892 24.875ZM19.7908 18.4362C19.8528 18.4776 19.9256 18.4997 20.0001 18.4997C20.0746 18.4997 20.1474 18.4776 20.2093 18.4362C21.0399 17.8779 23.7501 15.8934 23.7501 13.793C23.7501 12.7771 23.1636 12.0148 22.2193 11.8033C21.4963 11.6401 20.5862 11.8554 20.0001 12.5289C19.4139 11.8554 18.5046 11.639 17.7808 11.8033C16.8366 12.0148 16.2501 12.7771 16.2501 13.793C16.2501 15.8934 18.9602 17.8779 19.7908 18.4362ZM17.9447 12.5352C18.0499 12.5117 18.1575 12.5001 18.2653 12.5004C18.7952 12.5004 19.3783 12.7715 19.6611 13.3707C19.6913 13.4351 19.7393 13.4895 19.7993 13.5276C19.8593 13.5657 19.929 13.5859 20.0001 13.5859C20.0712 13.5859 20.1408 13.5657 20.2008 13.5276C20.2609 13.4895 20.3088 13.4351 20.3391 13.3707C20.6807 12.6459 21.4614 12.401 22.0554 12.5349C22.3397 12.599 23.0001 12.8488 23.0001 13.793C23.0001 15.3965 20.8153 17.0922 20.0001 17.6694C19.1848 17.0922 17.0001 15.3965 17.0001 13.793C17.0001 12.8488 17.6604 12.599 17.9447 12.5352ZM24.8751 14H26.3751V14.75H24.8751V14ZM13.6251 14H15.1251V14.75H13.6251V14ZM19.6251 8.75H20.3751V10.25H19.6251V8.75ZM15.2259 10.5159L15.7562 9.98563L16.8167 11.0461L16.2864 11.5764L15.2259 10.5159ZM23.1797 11.0457L24.2402 9.98525L24.7704 10.5155L23.7099 11.576L23.1797 11.0457Z" fill="black"/>
<defs>
<linearGradient id="paint0_linear_140_1075" x1="0" y1="20" x2="40" y2="20" gradientUnits="userSpaceOnUse">
<stop stop-color="#4E9DAB"/>
<stop offset="1" stop-color="#336C79"/>
</linearGradient>
</defs>
</svg>
