<svg width="40" height="40" viewBox="0 0 40 40" fill="none" xmlns="http://www.w3.org/2000/svg">
<rect x="0.5" y="0.5" width="39" height="39" rx="19.5" fill="#ECF7F7"/>
<rect x="0.5" y="0.5" width="39" height="39" rx="19.5" stroke="url(#paint0_linear_140_1066)"/>
<path d="M22.8531 14.5002L20.0122 10.5107L19.9947 10.4931C19.4614 9.95987 18.8612 9.53453 18.2211 9.21704C16.6383 9.31684 15.0841 9.97126 13.8745 11.1806C11.2378 13.8175 11.2378 18.0925 13.8745 20.7293L14.0512 20.906L22.934 26.6155C23.0749 26.1688 22.9684 25.6608 22.6144 25.3067L20.6631 23.3555L20.6796 23.3388L22.631 25.29C23.1378 25.7969 23.9594 25.7969 24.4662 25.29C24.9731 24.7834 24.9731 23.9616 24.4662 23.4548C24.9731 23.9616 25.7949 23.9616 26.3017 23.4548C26.8085 22.9479 26.8085 22.1261 26.3017 21.6195C26.8085 22.1261 27.6303 22.1261 28.137 21.6193C28.6438 21.1125 28.6438 20.2909 28.137 19.7841L22.8531 14.5002Z" fill="#FCC69D"/>
<path d="M30.0778 11.0843C29.9153 10.879 29.741 10.6833 29.5559 10.498C26.9192 7.86133 22.6441 7.86133 20.0074 10.498L16.7798 13.7256C16.1763 14.3291 16.1763 15.3078 16.7798 15.9114C17.3835 16.5149 18.362 16.5149 18.9655 15.9114L20.3793 14.4977H20.4682L22.5082 12.4577C24.5552 10.4107 27.5892 9.95313 30.0778 11.0843Z" fill="white"/>
<path d="M24.5651 13.3044L23.5171 14.1775C23.7621 14.0484 23.9862 13.8831 24.1822 13.6874L24.5651 13.3044Z" fill="#FCC69D"/>
<path d="M23.5172 14.1777L24.5651 13.3046L24.1823 13.6875C23.9863 13.8832 23.7622 14.0485 23.5172 14.1777L22.8987 14.6929L28.4242 20.2185L28.6469 20.9559L29.556 20.0467C32.0052 17.5975 32.1788 13.7347 30.0779 11.0845C27.5891 9.95336 24.5552 10.4108 22.5083 12.4578L20.4683 14.4978H22.2259C22.676 14.4977 23.1192 14.3879 23.5172 14.1777ZM17.5489 24.2693L16.7408 25.0772C16.2342 25.584 16.2342 26.4058 16.7408 26.9125C17.2477 27.4193 18.0695 27.4193 18.5763 26.9125L19.3841 26.1046C19.891 25.5979 19.891 24.7761 19.3841 24.2693C18.8773 23.7625 18.0557 23.7625 17.5489 24.2693Z" fill="#FCC69D"/>
<path d="M15.7131 22.4341L14.9053 23.2419C14.3985 23.7488 14.3985 24.5704 14.9053 25.0772C15.4122 25.584 16.2339 25.584 16.7406 25.0772L17.5486 24.2693C18.0553 23.7625 18.0553 22.9409 17.5486 22.4341C17.0418 21.9272 16.22 21.9272 15.7131 22.4341ZM13.8779 20.5987L13.0701 21.4065C12.5632 21.9133 12.5632 22.7351 13.0701 23.2419C13.5767 23.7486 14.3985 23.7486 14.9053 23.2419L15.7132 22.4339C16.22 21.9272 16.22 21.1055 15.7132 20.5987C15.2063 20.0918 14.3846 20.0918 13.8779 20.5987Z" fill="#FCC69D"/>
<path d="M12.0425 18.7634L11.2346 19.5713C10.7278 20.0781 10.7278 20.8997 11.2346 21.4066C11.7414 21.9134 12.5633 21.9134 13.0701 21.4066L13.8779 20.5987C14.3846 20.0918 14.3846 19.2703 13.8779 18.7634C13.3711 18.2566 12.5493 18.2566 12.0425 18.7634Z" fill="#FCC69D"/>
<path d="M29.5947 10.0112C29.4703 10.0115 29.3511 10.0609 29.2629 10.1488C29.1754 10.2369 29.1262 10.356 29.126 10.4802C29.126 10.6034 29.1758 10.7244 29.2629 10.8116C29.3512 10.8991 29.4704 10.9485 29.5947 10.9489C29.7181 10.9489 29.8386 10.8988 29.9263 10.8116C30.0138 10.7234 30.0629 10.6043 30.0631 10.4802C30.0631 10.3564 30.0135 10.2359 29.9263 10.1488C29.8383 10.061 29.7191 10.0115 29.5947 10.0112ZM18.8281 21.0516C18.7044 21.0516 18.5839 21.1014 18.4963 21.1889C18.4088 21.2771 18.3596 21.3962 18.3594 21.5204C18.3594 21.6437 18.4092 21.7646 18.4963 21.8518C18.5845 21.9395 18.7037 21.9889 18.8281 21.9892C18.9515 21.9892 19.0719 21.9391 19.1595 21.8518C19.247 21.7636 19.2962 21.6445 19.2965 21.5204C19.2965 21.3966 19.2467 21.2761 19.1595 21.1889C19.0715 21.1013 18.9524 21.0519 18.8281 21.0516Z" fill="black"/>
<path d="M31.0618 11.7055C30.9338 11.4805 30.6474 11.4019 30.4226 11.5297C30.1973 11.6577 30.1188 11.9439 30.2468 12.169C31.6391 14.6176 31.2189 17.7208 29.2243 19.7153L28.8689 20.0707C28.7807 19.8387 28.6444 19.6281 28.4688 19.4527L23.652 14.6361C23.9712 14.479 24.2623 14.2705 24.5137 14.0188L25.4375 13.0949C25.6204 12.912 25.6204 12.615 25.4375 12.4321C25.2544 12.249 24.9576 12.249 24.7745 12.4321L23.8507 13.3558C23.4166 13.7898 22.8396 14.029 22.2258 14.029H20.3792C20.2549 14.029 20.1356 14.0784 20.0476 14.1663L18.6339 15.5798C18.2142 15.9997 17.531 15.9997 17.1111 15.5798C16.6913 15.1602 16.6913 14.477 17.1111 14.0571L20.3388 10.8295C22.3112 8.85711 25.3906 8.42333 27.827 9.77483C28.0534 9.90027 28.3388 9.81861 28.4642 9.59211C28.5898 9.3658 28.5082 9.08033 28.2817 8.9547C26.9379 8.20948 25.3547 7.91117 23.8234 8.11517C22.3903 8.30614 21.0785 8.906 20.0033 9.85817C18.6826 8.68719 17.0009 8.04688 15.2206 8.04688C13.2919 8.04688 11.4786 8.79795 10.1148 10.1617C8.75108 11.5255 8 13.3388 8 15.2676C8 17.1963 8.75108 19.0096 10.1149 20.3734L10.2916 20.5501C10.3216 20.5799 10.3555 20.6055 10.3925 20.6262C10.4238 21.0318 10.5939 21.4286 10.9033 21.7381C11.2477 22.0825 11.7 22.2546 12.1525 22.2546C12.1759 22.2546 12.1995 22.2538 12.223 22.2529C12.222 22.2767 12.2211 22.3003 12.2211 22.3242C12.2211 22.796 12.405 23.2397 12.7386 23.5733C13.083 23.9177 13.5353 24.09 13.9877 24.09C14.0112 24.09 14.0348 24.0891 14.0582 24.0882C14.0572 24.112 14.0567 24.1358 14.0566 24.1596C14.0566 24.6315 14.2402 25.075 14.5741 25.4088C14.9185 25.753 15.3707 25.9253 15.8232 25.9253C15.847 25.9253 15.8706 25.9246 15.8945 25.9236C15.8754 26.3994 16.0469 26.8815 16.4093 27.244C16.7429 27.5776 17.1866 27.7615 17.6585 27.7615C18.1303 27.7615 18.574 27.5776 18.9076 27.244L19.5627 26.5889L20.4477 27.4737C20.7813 27.8074 21.225 27.9911 21.6968 27.9911C22.1687 27.9911 22.6123 27.8075 22.946 27.4738C23.3129 27.1069 23.4843 26.6174 23.4603 26.136C23.4898 26.1375 23.5193 26.1384 23.5488 26.1384C24.0012 26.1384 24.4537 25.9661 24.7981 25.6217C25.1603 25.2595 25.3317 24.7778 25.3128 24.302C25.3366 24.303 25.3604 24.3039 25.3842 24.3039C25.8561 24.3039 26.2998 24.1201 26.6334 23.7864C26.9955 23.4241 27.1671 22.9423 27.1483 22.4668C27.1719 22.4677 27.1957 22.4684 27.2195 22.4684C27.6913 22.4684 28.135 22.2848 28.4686 21.9512C28.633 21.787 28.7632 21.5918 28.8517 21.377C28.8986 21.3544 28.9414 21.324 28.9783 21.2872L29.8873 20.3783C32.1792 18.0864 32.6621 14.52 31.0618 11.7055ZM12.1525 21.3178C11.9309 21.3178 11.7229 21.2316 11.5662 21.075C11.4889 20.9982 11.4277 20.9068 11.386 20.8062C11.3444 20.7056 11.3231 20.5977 11.3233 20.4888C11.3233 20.2674 11.4096 20.0592 11.5663 19.9026L12.374 19.0948C12.4508 19.0176 12.5422 18.9563 12.6428 18.9147C12.7435 18.873 12.8514 18.8517 12.9603 18.852C13.0692 18.8517 13.1771 18.873 13.2777 18.9147C13.3783 18.9564 13.4696 19.0176 13.5464 19.0948C13.8698 19.418 13.8698 19.9438 13.5464 20.2672L12.7386 21.0751C12.6618 21.1523 12.5705 21.2135 12.4698 21.2552C12.3692 21.2969 12.2614 21.3181 12.1525 21.3178ZM13.4016 22.9103C13.3244 22.8335 13.2632 22.7422 13.2215 22.6416C13.1798 22.541 13.1585 22.4331 13.1588 22.3242C13.1585 22.2153 13.1798 22.1074 13.2215 22.0068C13.2632 21.9062 13.3244 21.8149 13.4016 21.7381L14.2095 20.9302V20.93C14.2863 20.8529 14.3776 20.7917 14.4782 20.75C14.5789 20.7084 14.6867 20.6871 14.7956 20.6874C15.0171 20.6874 15.2254 20.7735 15.3819 20.9302C15.7051 21.2534 15.7051 21.7793 15.3819 22.1025L14.574 22.9103C14.2507 23.2335 13.7248 23.2335 13.4016 22.9103ZM15.2369 24.7458C15.1597 24.6689 15.0984 24.5776 15.0567 24.4769C15.0151 24.3763 14.9938 24.2684 14.9941 24.1595C14.9938 24.0506 15.0151 23.9427 15.0568 23.8421C15.0985 23.7415 15.1597 23.6501 15.2369 23.5733L16.0449 22.7655C16.1217 22.6883 16.213 22.627 16.3137 22.5853C16.4143 22.5437 16.5221 22.5224 16.631 22.5227C16.7399 22.5224 16.8478 22.5437 16.9484 22.5854C17.049 22.6271 17.1404 22.6883 17.2172 22.7655C17.5403 23.0887 17.5403 23.6145 17.2172 23.9379L16.4093 24.7458C16.0861 25.069 15.5602 25.069 15.2369 24.7458ZM18.2446 26.5812C18.1678 26.6584 18.0765 26.7197 17.9758 26.7613C17.8752 26.803 17.7674 26.8243 17.6585 26.824C17.5496 26.8243 17.4417 26.803 17.3411 26.7613C17.2405 26.7196 17.1491 26.6584 17.0723 26.5812C16.7491 26.2579 16.7491 25.732 17.0723 25.4088L17.8802 24.6009V24.6007C17.957 24.5235 18.0483 24.4623 18.1489 24.4206C18.2495 24.3789 18.3574 24.3576 18.4663 24.3579C18.6877 24.3579 18.8959 24.4442 19.0524 24.6009C19.1297 24.6777 19.191 24.769 19.2327 24.8696C19.2744 24.9702 19.2957 25.0781 19.2954 25.187C19.2954 25.4084 19.2092 25.6166 19.0524 25.7732L18.2446 26.5812ZM27.8058 21.288C27.729 21.3653 27.6376 21.4266 27.537 21.4683C27.4364 21.51 27.3284 21.5313 27.2195 21.531C26.9981 21.531 26.7899 21.4447 26.6334 21.288L24.6822 19.3369C24.682 19.3367 24.682 19.3367 24.6818 19.3367L22.8467 17.5014C22.6636 17.3185 22.3668 17.3185 22.1837 17.5014C22.0006 17.6845 22.0006 17.9813 22.1837 18.1644L25.9703 21.951C26.2935 22.2742 26.2935 22.8001 25.9703 23.1235C25.8935 23.2007 25.8022 23.2619 25.7016 23.3036C25.601 23.3453 25.4931 23.3666 25.3842 23.3663C25.1627 23.3663 24.9546 23.28 24.7981 23.1235L21.0113 19.3369C20.9678 19.2933 20.9161 19.2588 20.8592 19.2352C20.8024 19.2117 20.7414 19.1995 20.6799 19.1995C20.6183 19.1995 20.5574 19.2117 20.5005 19.2352C20.4436 19.2588 20.392 19.2933 20.3485 19.3369C20.1653 19.52 20.1653 19.8168 20.3485 19.9999L22.1833 21.8348C22.1835 21.8348 22.1835 21.8351 22.1837 21.8351L24.1351 23.7865C24.4582 24.1097 24.4582 24.6356 24.1351 24.9589C23.8119 25.2821 23.2858 25.2821 22.9626 24.9589L21.0113 23.0075C20.9762 22.9725 20.9358 22.9432 20.8916 22.9209L20.3351 22.3645C20.152 22.1814 19.8552 22.1814 19.6721 22.3645C19.489 22.5474 19.489 22.8442 19.6721 23.0273L22.283 25.6384C22.6063 25.9616 22.6063 26.4875 22.283 26.8108C22.2062 26.8881 22.1149 26.9493 22.0142 26.991C21.9136 27.0326 21.8057 27.0539 21.6968 27.0537C21.5879 27.0539 21.4801 27.0326 21.3794 26.991C21.2788 26.9493 21.1875 26.8881 21.1107 26.8108L20.1172 25.8173C20.1938 25.616 20.2331 25.4024 20.2329 25.187C20.2329 24.7152 20.0491 24.2715 19.7154 23.9379C19.3818 23.6043 18.9382 23.4204 18.4663 23.4204C18.4425 23.4204 18.4187 23.4213 18.395 23.4222C18.4138 22.9465 18.2424 22.4648 17.8802 22.1026C17.5464 21.769 17.1027 21.5851 16.631 21.5851C16.607 21.5851 16.5834 21.5859 16.5596 21.5868C16.5785 21.1113 16.4071 20.6295 16.0447 20.2671C15.7111 19.9335 15.2675 19.7499 14.7956 19.7499C14.7718 19.7499 14.748 19.7506 14.7244 19.7515C14.7432 19.276 14.5716 18.7942 14.2095 18.4319C13.5206 17.7431 12.3998 17.7431 11.711 18.4319L10.9033 19.2397C10.8036 19.3394 10.7163 19.4506 10.6431 19.5711C9.54195 18.4015 8.9375 16.881 8.9375 15.2677C8.9375 13.5893 9.59117 12.0115 10.7779 10.8248C11.9646 9.63809 13.5424 8.98461 15.2208 8.98461C16.7458 8.98461 18.188 9.52442 19.3291 10.5135L16.4483 13.3943C16.0678 13.7748 15.8584 14.2805 15.8584 14.8187C15.8584 15.3567 16.0678 15.8626 16.4483 16.2431C16.8409 16.6357 17.3569 16.8321 17.8727 16.8321C18.3885 16.8321 18.9043 16.6357 19.2971 16.2431L20.5735 14.9665H22.226C22.3624 14.9665 22.4974 14.9571 22.6307 14.9407L27.8058 20.1158C28.129 20.4389 28.129 20.9648 27.8058 21.288Z" fill="black"/>
<defs>
<linearGradient id="paint0_linear_140_1066" x1="0" y1="20" x2="40" y2="20" gradientUnits="userSpaceOnUse">
<stop stop-color="#4E9DAB"/>
<stop offset="1" stop-color="#336C79"/>
</linearGradient>
</defs>
</svg>
