<svg width="40" height="40" viewBox="0 0 40 40" fill="none" xmlns="http://www.w3.org/2000/svg">
<rect x="0.5" y="0.5" width="39" height="39" rx="19.5" fill="#ECF7F7"/>
<rect x="0.5" y="0.5" width="39" height="39" rx="19.5" stroke="url(#paint0_linear_140_1048)"/>
<g clip-path="url(#clip0_140_1048)">
<g clip-path="url(#clip1_140_1048)">
<path d="M27.6538 13.4326H28.3781V21.8109H27.6538V13.4326ZM11.6216 13.4326H12.3459V21.8109H11.6216V13.4326Z" fill="#FF9441"/>
<path d="M31.4253 21.9302L28.0161 14.6488L24.6069 21.9302L24.0322 21.4486L27.6881 13.6411C27.7173 13.5787 27.7636 13.5259 27.8217 13.489C27.8798 13.452 27.9472 13.4324 28.0161 13.4324C28.0849 13.4324 28.1524 13.452 28.2105 13.489C28.2686 13.5259 28.3149 13.5787 28.3441 13.6411L32 21.4486L31.4253 21.9302ZM15.3931 21.9302L11.9839 14.6488L8.57474 21.9302L8 21.4486L11.6559 13.6411C11.6851 13.5787 11.7315 13.526 11.7895 13.489C11.8476 13.4521 11.9151 13.4324 11.9839 13.4324C12.0528 13.4324 12.1202 13.4521 12.1783 13.489C12.2364 13.526 12.2827 13.5787 12.3119 13.6411L15.9678 21.4486L15.3931 21.9302Z" fill="#FFB739"/>
<path d="M28.0161 10.8975L27.0503 12.3462L28.0161 13.7948C28.8162 13.7948 29.4648 13.1463 29.4648 12.3462C29.4648 11.546 28.8162 10.8975 28.0161 10.8975Z" fill="#FF7149"/>
<path d="M11.9838 10.8975C11.1837 10.8975 10.5352 11.546 10.5352 12.3462C10.5352 13.1463 11.1837 13.7948 11.9838 13.7948C12.784 13.7948 13.4325 13.1463 13.4325 12.3462H26.5673C26.5673 13.1463 27.2159 13.7948 28.016 13.7948V10.8975H11.9838ZM21.0865 22.8975L19.9999 21.9317L18.9134 22.8975L18.3667 29.1027H21.6332L21.0865 22.8975Z" fill="#FF9441"/>
<path d="M20.7243 9.44873H19.2756C18.8756 9.44873 18.5513 9.77304 18.5513 10.1731C18.5513 10.5731 18.8756 10.8974 19.2756 10.8974V22.825H20.7243V10.8974C21.1243 10.8974 21.4487 10.5731 21.4487 10.1731C21.4487 9.77304 21.1243 9.44873 20.7243 9.44873Z" fill="#FFB739"/>
<path d="M30.5515 21.4487L28.3784 23.6218H29.8271C31.0273 23.6218 32.0001 22.6489 32.0001 21.4487H30.5515Z" fill="#FF9441"/>
<path d="M30.5513 21.4487H24.0322C24.0322 22.6489 25.0051 23.6218 26.2053 23.6218H28.3783C29.5784 23.6218 30.5513 22.6489 30.5513 21.4487Z" fill="#FFB739"/>
<path d="M14.5192 21.4487L12.3462 23.6218H13.7949C14.995 23.6218 15.9679 22.6489 15.9679 21.4487H14.5192Z" fill="#FF9441"/>
<path d="M14.5191 21.4487H8C8 22.6489 8.97289 23.6218 10.173 23.6218H12.3461C13.5462 23.6218 14.5191 22.6489 14.5191 21.4487Z" fill="#FFB739"/>
<path d="M21.0864 21.4487H19.6377V22.8974H21.0864C21.4864 22.8974 21.8107 22.5731 21.8107 22.1731C21.8107 21.773 21.4864 21.4487 21.0864 21.4487Z" fill="#FF9441"/>
<path d="M20.362 22.1731C20.362 21.773 20.0377 21.4487 19.6377 21.4487H18.9133C18.5133 21.4487 18.189 21.773 18.189 22.1731C18.189 22.5731 18.5133 22.8974 18.9133 22.8974H19.6377C20.0377 22.8974 20.362 22.5731 20.362 22.1731Z" fill="#FFB739"/>
<path d="M24.3945 28.3782H22.9458V31.2756H26.5675V30.5512C26.5675 29.3511 25.5946 28.3782 24.3945 28.3782Z" fill="#FF9441"/>
<path d="M22.9457 28.3782H15.6057C14.4055 28.3782 13.4326 29.3511 13.4326 30.5512V31.2756H25.1187V30.5512C25.1187 29.3511 24.1458 28.3782 22.9457 28.3782Z" fill="#FFB739"/>
<path d="M26.5673 30.5513H25.1187L26.5673 32H27.5918C27.841 32 28.017 31.7537 27.9342 31.5188C27.7358 30.9552 27.1987 30.5513 26.5673 30.5513Z" fill="#FF7149"/>
<path d="M25.1186 30.5513H13.4324C12.801 30.5513 12.264 30.9552 12.0656 31.5188C11.9829 31.7538 12.1588 32 12.408 32H26.5672C26.5672 31.1999 25.9186 30.5513 25.1186 30.5513Z" fill="#FF9441"/>
<path d="M11.9838 12.7082C12.1838 12.7082 12.3459 12.5461 12.3459 12.3461C12.3459 12.146 12.1838 11.9839 11.9838 11.9839C11.7837 11.9839 11.6216 12.146 11.6216 12.3461C11.6216 12.5461 11.7837 12.7082 11.9838 12.7082Z" fill="#FFB739"/>
<path d="M28.016 12.7082C28.216 12.7082 28.3782 12.5461 28.3782 12.3461C28.3782 12.146 28.216 11.9839 28.016 11.9839C27.816 11.9839 27.6538 12.146 27.6538 12.3461C27.6538 12.5461 27.816 12.7082 28.016 12.7082Z" fill="#FFB739"/>
<path d="M20.0002 9.44869C20.4003 9.44869 20.7246 9.12439 20.7246 8.72435C20.7246 8.3243 20.4003 8 20.0002 8C19.6002 8 19.2759 8.3243 19.2759 8.72435C19.2759 9.12439 19.6002 9.44869 20.0002 9.44869Z" fill="#FF9441"/>
</g>
</g>
<defs>
<linearGradient id="paint0_linear_140_1048" x1="0" y1="20" x2="40" y2="20" gradientUnits="userSpaceOnUse">
<stop stop-color="#4E9DAB"/>
<stop offset="1" stop-color="#336C79"/>
</linearGradient>
<clipPath id="clip0_140_1048">
<rect width="24" height="24" fill="white" transform="translate(8 8)"/>
</clipPath>
<clipPath id="clip1_140_1048">
<rect width="24" height="24" fill="white" transform="translate(8 8)"/>
</clipPath>
</defs>
</svg>
