<svg width="40" height="40" viewBox="0 0 40 40" fill="none" xmlns="http://www.w3.org/2000/svg">
<rect x="0.5" y="0.5" width="39" height="39" rx="19.5" fill="#ECF7F7"/>
<rect x="0.5" y="0.5" width="39" height="39" rx="19.5" stroke="url(#paint0_linear_140_989)"/>
<path d="M15.7763 24.0385C18.5855 19.3784 26.139 13.9897 30.3109 11.0341C30.4245 10.9537 30.5597 10.9096 30.6988 10.9075C30.8379 10.9055 30.9744 10.9456 31.0902 11.0226C31.1796 11.0817 31.254 11.1609 31.3075 11.2538C31.361 11.3467 31.3922 11.4508 31.3984 11.5578C31.4047 11.6648 31.386 11.7718 31.3438 11.8703C31.3015 11.9689 31.2369 12.0562 31.155 12.1254C26.1503 16.3532 20.1942 21.4112 18.3957 26.9831C18.3639 27.0826 18.3104 27.1737 18.2388 27.2499C18.1673 27.326 18.0797 27.3851 17.9824 27.423C17.0699 27.7782 15.6777 28.4939 14.854 28.9921C14.7724 29.0417 14.6814 29.0738 14.5868 29.0866C14.4922 29.0993 14.396 29.0923 14.3042 29.066C14.2124 29.0398 14.127 28.9948 14.0535 28.934C13.9799 28.8731 13.9197 28.7977 13.8767 28.7125C12.6006 26.2052 10.5491 23.1119 8.84725 21.7105C8.77312 21.649 8.71278 21.5726 8.67019 21.4862C8.6276 21.3998 8.60372 21.3054 8.60009 21.2091C8.59647 21.1128 8.61319 21.0169 8.64916 20.9275C8.68513 20.8382 8.73955 20.7574 8.80885 20.6905C12.2097 17.4395 14.7177 21.8917 15.7761 24.0383L15.7763 24.0385Z" fill="#83CF8F"/>
<defs>
<linearGradient id="paint0_linear_140_989" x1="0" y1="20" x2="40" y2="20" gradientUnits="userSpaceOnUse">
<stop stop-color="#4E9DAB"/>
<stop offset="1" stop-color="#336C79"/>
</linearGradient>
</defs>
</svg>
