<svg width="40" height="40" viewBox="0 0 40 40" fill="none" xmlns="http://www.w3.org/2000/svg">
<rect x="0.5" y="0.5" width="39" height="39" rx="19.5" fill="#ECF7F7"/>
<rect x="0.5" y="0.5" width="39" height="39" rx="19.5" stroke="url(#paint0_linear_140_1405)"/>
<path d="M30.0037 11.4744C29.7971 11.2778 29.5265 11.1776 29.2417 11.1914C27.9392 11.2558 26.5909 11.1043 25.2338 10.7406C23.4876 10.2727 21.901 9.49293 20.6455 8.48549C20.2655 8.18062 19.7348 8.18062 19.3547 8.48549C18.0992 9.49293 16.5127 10.2727 14.7665 10.7406C13.4094 11.1042 12.0608 11.2559 10.7586 11.1914C10.4734 11.1774 10.2031 11.2778 9.99657 11.4744C9.79004 11.671 9.67627 11.9362 9.67627 12.2214V19.3594C9.67627 25.3875 13.9733 30.591 19.8937 31.7322C19.964 31.7458 20.0362 31.7458 20.1066 31.7322C26.0269 30.591 30.324 25.3874 30.324 19.3594V12.2214C30.324 11.9363 30.2102 11.671 30.0037 11.4744ZM29.199 19.3594C29.199 24.8131 25.337 29.5257 20.0001 30.6065C14.6633 29.5257 10.8013 24.8131 10.8013 19.3594V12.3195C12.1899 12.3777 13.6213 12.2121 15.0577 11.8274C16.9264 11.3266 18.6336 10.4913 20.0001 9.40977C21.3666 10.4913 23.0738 11.3266 24.9426 11.8274C26.379 12.2122 27.8103 12.3778 29.199 12.3195V19.3594Z" fill="black"/>
<defs>
<linearGradient id="paint0_linear_140_1405" x1="0" y1="20" x2="40" y2="20" gradientUnits="userSpaceOnUse">
<stop stop-color="#4E9DAB"/>
<stop offset="1" stop-color="#336C79"/>
</linearGradient>
</defs>
</svg>
