<svg width="40" height="40" viewBox="0 0 40 40" fill="none" xmlns="http://www.w3.org/2000/svg">
<rect x="0.5" y="0.5" width="39" height="39" rx="19.5" fill="#ECF7F7"/>
<rect x="0.5" y="0.5" width="39" height="39" rx="19.5" stroke="url(#paint0_linear_140_1414)"/>
<path d="M20.9976 24.5037L18.2641 29.5045C18.1822 29.6544 18.0614 29.7795 17.9145 29.8666C17.7676 29.9537 17.5999 29.9997 17.4291 29.9997C16.8015 29.9997 16.3458 29.4027 16.5112 28.7973L17.8307 23.9685L20.9976 24.5037Z" fill="#F37C7C"/>
<path d="M17.939 24.3876C18.1994 26.122 16.8633 27.6133 15.1789 27.6133H14.6862C12.531 27.6133 10.708 25.7865 11.0649 23.6729L17.939 24.3876Z" fill="#E94444"/>
<path d="M15.1786 26.6315H14.686C14.3858 26.6312 14.0877 26.5825 13.803 26.4874C13.716 26.4568 13.6444 26.3933 13.6038 26.3105C13.5632 26.2276 13.5567 26.1322 13.5858 26.0446C13.615 25.9571 13.6773 25.8845 13.7595 25.8425C13.8416 25.8006 13.9369 25.7925 14.0249 25.8202C14.238 25.8916 14.4612 25.9281 14.686 25.9284H15.1786C15.5399 25.9284 15.8797 25.7506 16.0876 25.4529C16.2991 25.15 16.3431 24.7658 16.2085 24.3989C16.1769 24.3115 16.1813 24.2152 16.2205 24.131C16.2598 24.0468 16.3308 23.9815 16.418 23.9495C16.5052 23.9175 16.6016 23.9213 16.686 23.9601C16.7704 23.9989 16.836 24.0695 16.8685 24.1566C17.0835 24.7422 17.009 25.3614 16.6641 25.8554C16.3248 26.3414 15.7695 26.6315 15.1786 26.6315Z" fill="#D83131"/>
<path d="M23.8536 24.8206H12.4497C11.2197 24.8206 10.1062 24.3215 9.30073 23.5147C8.70842 22.9214 8.70725 21.9609 9.30008 21.3681L9.69397 20.9742L9.61962 21.0486C9.02633 21.6418 8.00361 21.2295 8.00005 20.3905L8 20.3708C8 17.5268 9.14483 14.9503 10.9987 13.0768C11.37 12.7016 11.9743 12.6965 12.3476 13.0697L12.4769 13.199C12.0537 12.7758 12.1232 12.071 12.6211 11.7388L12.621 11.7387C14.2665 10.6407 16.2437 10.0005 18.3704 10.0005H19.0514C19.5753 10.0005 20 10.4252 20 10.9491C20 10.4252 20.4248 10.0005 20.9487 10.0005H23.0674C24.6458 10.0005 26.1568 10.4001 27.4849 11.1193C28.0401 11.4199 28.144 12.1741 27.6976 12.6207L27.9335 12.3847C28.2891 12.0291 28.8602 12.0131 29.236 12.3473C30.3355 13.3251 31.2012 14.5738 31.7505 16.0059C32.6938 18.5072 30.8454 21.1798 28.1722 21.1798H27.2008C27.1703 21.1798 27.1468 21.2058 27.1494 21.2362C27.1573 21.3297 27.1614 21.4243 27.1614 21.5199C27.1614 23.3451 25.6798 24.8244 23.8536 24.8206Z" fill="#F9B1B1"/>
<path d="M25.7659 11.655L26.0018 11.419C26.3574 11.0635 26.9285 11.0474 27.3042 11.3816C27.5378 11.5894 27.7606 11.809 27.9717 12.0397C28.0059 11.6798 27.8353 11.3092 27.4847 11.1193C26.9695 10.8403 26.429 10.6107 25.8705 10.4336C26.1267 10.7944 26.1064 11.3143 25.7659 11.655ZM31.7504 16.006C31.201 14.5738 30.3353 13.3251 29.2358 12.3473C28.9263 12.0722 28.4845 12.0345 28.1396 12.2283C28.8468 13.0449 29.4174 13.9936 29.8188 15.0402C30.7621 17.5415 28.9137 20.2141 26.2405 20.2141H25.5621C25.474 20.2141 25.3894 20.2491 25.3271 20.3114C25.2648 20.3738 25.2297 20.4583 25.2297 20.5465V20.5542C25.2297 22.3795 23.7482 23.8587 21.922 23.8549H10.5181C10.1941 23.8551 9.87107 23.8201 9.55469 23.7504C10.3329 24.4176 11.3442 24.8207 12.4496 24.8207H23.8535C25.6797 24.8245 27.1613 23.3453 27.1613 21.52C27.1613 21.4245 27.1572 21.3298 27.1493 21.2363C27.1486 21.2292 27.1494 21.2219 27.1517 21.2151C27.154 21.2083 27.1577 21.2021 27.1625 21.1968C27.1674 21.1914 27.1733 21.1872 27.1798 21.1843C27.1864 21.1814 27.1935 21.1799 27.2007 21.1799H28.1721C30.8453 21.1798 32.6937 18.5073 31.7504 16.006Z" fill="#F79595"/>
<path d="M11.5787 12.7978L13.6343 14.8535C13.7002 14.9194 13.7896 14.9564 13.8829 14.9564C13.9761 14.9564 14.0655 14.9194 14.1314 14.8535C14.1974 14.7875 14.2344 14.6981 14.2344 14.6049C14.2344 14.5116 14.1974 14.4222 14.1314 14.3563L12.2044 12.4292C12.1759 12.7015 12.264 12.986 12.4771 13.1991L12.3478 13.0698C12.1372 12.8592 11.853 12.7691 11.5787 12.7978ZM21.6483 23.042C21.7416 23.042 21.831 23.005 21.8969 22.9391C21.9628 22.8731 21.9999 22.7837 21.9999 22.6905C21.9999 22.5972 21.9628 22.5078 21.8969 22.4419C21.831 22.376 21.7416 22.3389 21.6483 22.3389H17.1438C15.7919 22.3389 14.5209 22.8654 13.565 23.8213L12.5656 24.8207H13.56L14.0621 24.3185C14.8852 23.4954 15.9797 23.042 17.1438 23.042H21.6483ZM17.9235 12.3323L17.7945 11.6682C17.7759 11.5774 17.7223 11.4977 17.6453 11.4463C17.5682 11.3949 17.474 11.376 17.3831 11.3937C17.2922 11.4113 17.2119 11.4641 17.1597 11.5406C17.1075 11.6171 17.0876 11.7111 17.1044 11.8022L17.2334 12.4663C17.3042 12.8308 17.0976 13.1949 16.7528 13.3132C16.4699 13.4104 16.1944 13.5275 15.9282 13.6638L15.2143 12.2081C15.1732 12.1245 15.1005 12.0606 15.0123 12.0305C14.9242 12.0003 14.8276 12.0065 14.744 12.0475C14.6603 12.0885 14.5963 12.1611 14.5661 12.2493C14.5359 12.3374 14.542 12.434 14.5829 12.5177L15.9862 15.3792C16.0065 15.4206 16.0348 15.4577 16.0694 15.4882C16.1041 15.5187 16.1444 15.5421 16.1881 15.557C16.2318 15.572 16.278 15.5782 16.3241 15.5752C16.3701 15.5723 16.4152 15.5603 16.4566 15.54C16.5404 15.4989 16.6043 15.4263 16.6345 15.3381C16.6647 15.2499 16.6586 15.1533 16.6175 15.0695L16.2378 14.2951C16.4776 14.1717 16.726 14.0658 16.981 13.9782C17.6556 13.7468 18.0608 13.0391 17.9235 12.3323ZM11.3154 19.4001C10.7315 18.8163 10.6307 17.8876 11.0755 17.192L11.3581 16.7502C11.4075 16.6716 11.4238 16.5767 11.4036 16.4862C11.3833 16.3957 11.3281 16.3168 11.2499 16.2668C11.1718 16.2168 11.077 16.1997 10.9863 16.2193C10.8956 16.2389 10.8164 16.2935 10.7658 16.3713L10.4832 16.8132C9.86184 17.7847 10.0027 19.0818 10.8182 19.8973L11.4709 20.55C11.5395 20.6186 11.6295 20.653 11.7194 20.653C11.8094 20.653 11.8994 20.6187 11.968 20.55C12.0339 20.4841 12.071 20.3946 12.071 20.3014C12.071 20.2082 12.0339 20.1188 11.968 20.0528L11.3154 19.4001ZM27.8504 21.1798C27.7838 20.4668 27.512 19.7869 27.0541 19.2218C26.5033 18.5422 25.7422 18.0915 24.9015 17.932L25.3746 16.5127C25.404 16.4243 25.3972 16.3277 25.3555 16.2443C25.3138 16.1609 25.2406 16.0975 25.1522 16.068C25.0637 16.0386 24.9672 16.0454 24.8838 16.0871C24.8004 16.1288 24.737 16.2019 24.7075 16.2904L24.1817 17.8676H22.1661L22.714 15.826C22.7259 15.7814 22.729 15.7349 22.723 15.6891C22.717 15.6434 22.702 15.5992 22.679 15.5592C22.6559 15.5192 22.6252 15.4842 22.5885 15.4561C22.5519 15.4279 22.5101 15.4073 22.4655 15.3953C22.4209 15.3834 22.3744 15.3803 22.3287 15.3863C22.2829 15.3923 22.2387 15.4073 22.1987 15.4304C22.1587 15.4534 22.1237 15.4841 22.0956 15.5208C22.0675 15.5574 22.0468 15.5992 22.0349 15.6438L21.4381 17.8676H19.3109L18.7141 15.6438C18.6889 15.5548 18.6298 15.4794 18.5494 15.4337C18.469 15.3881 18.3739 15.3759 18.2846 15.3999C18.1954 15.4239 18.1191 15.482 18.0724 15.5617C18.0257 15.6415 18.0122 15.7364 18.035 15.826L18.5828 17.8676H16.815C16.7218 17.8676 16.6324 17.9047 16.5664 17.9706C16.5005 18.0365 16.4635 18.1259 16.4635 18.2192C16.4635 18.3124 16.5005 18.4018 16.5664 18.4678C16.6324 18.5337 16.7218 18.5707 16.815 18.5707H24.2151C25.1087 18.5707 25.9443 18.9694 26.5077 19.6645C26.8826 20.1271 27.1028 20.6861 27.1523 21.2725C27.1514 21.2604 27.1505 21.2483 27.1494 21.2362C27.1488 21.229 27.1496 21.2218 27.1519 21.215C27.1542 21.2082 27.1579 21.2019 27.1627 21.1966C27.1675 21.1913 27.1734 21.1871 27.18 21.1842C27.1866 21.1813 27.1937 21.1798 27.2009 21.1798L27.8504 21.1798Z" fill="#F79595"/>
<path d="M24.8454 21.0168C24.6832 20.8544 24.5022 20.712 24.3062 20.5927L24.9155 19.9834C24.9814 19.9174 25.0184 19.828 25.0184 19.7348C25.0184 19.6416 24.9814 19.5522 24.9155 19.4862C24.8496 19.4203 24.7601 19.3833 24.6669 19.3833C24.5737 19.3833 24.4843 19.4203 24.4183 19.4862L23.614 20.2905C23.3588 20.2181 23.0947 20.1814 22.8293 20.1817H16.6513C15.6572 20.1817 14.7226 19.7946 14.0197 19.0917L12.8987 17.9706C12.8327 17.9047 12.7433 17.8677 12.6501 17.8677C12.5568 17.8677 12.4674 17.9047 12.4015 17.9706C12.3356 18.0365 12.2985 18.126 12.2985 18.2192C12.2985 18.3124 12.3356 18.4018 12.4015 18.4678L13.5226 19.5888C14.3583 20.4246 15.4694 20.8848 16.6513 20.8848H22.8294C23.0813 20.8848 23.3265 20.9279 23.5568 21.0105C23.5751 21.0193 23.5941 21.0264 23.6135 21.0318C23.8856 21.1383 24.1354 21.301 24.3483 21.5139L24.4713 21.6369C24.54 21.7056 24.63 21.7399 24.7199 21.7399C24.8099 21.7399 24.8999 21.7056 24.9685 21.6369C25.0344 21.571 25.0715 21.4816 25.0715 21.3884C25.0715 21.2951 25.0344 21.2057 24.9685 21.1398L24.8454 21.0168ZM27.1338 21.952C27.1237 22.0247 27.111 22.0969 27.0958 22.1687C27.093 22.1823 27.0909 22.1961 27.0896 22.21C27.1076 22.1252 27.1224 22.0391 27.1338 21.952ZM13.7521 16.153C13.6861 16.219 13.6491 16.3084 13.6491 16.4016C13.6491 16.4948 13.6861 16.5843 13.7521 16.6502L15.0853 17.9835C15.154 18.0521 15.244 18.0864 15.3339 18.0864C15.4239 18.0864 15.5139 18.0521 15.5825 17.9835C15.6484 17.9175 15.6854 17.8281 15.6854 17.7349C15.6854 17.6416 15.6484 17.5522 15.5825 17.4863L14.2492 16.153C14.1833 16.0871 14.0939 16.0501 14.0006 16.0501C13.9074 16.0501 13.818 16.0871 13.7521 16.153ZM28.463 19.5994C28.1373 18.8191 27.6378 18.1705 27.0248 17.6666C26.8801 17.5477 26.7953 17.3779 26.7861 17.1884C26.7815 17.093 26.7969 16.9977 26.8313 16.9087C26.8656 16.8196 26.9182 16.7387 26.9856 16.6711L27.6145 16.0422C27.6805 15.9762 27.7175 15.8868 27.7175 15.7936C27.7175 15.7004 27.6805 15.6109 27.6145 15.545C27.5486 15.4791 27.4592 15.4421 27.366 15.4421C27.2727 15.4421 27.1833 15.4791 27.1174 15.545L26.4885 16.1739C26.3517 16.3109 26.2451 16.475 26.1754 16.6556C26.1057 16.8362 26.0745 17.0293 26.0838 17.2227C26.1025 17.6072 26.2828 17.967 26.5783 18.2098C27.1219 18.6566 27.5425 19.2197 27.8141 19.8703C27.8408 19.9343 27.8859 19.989 27.9437 20.0275C28.0014 20.066 28.0693 20.0865 28.1387 20.0865C28.1966 20.0865 28.2536 20.0722 28.3046 20.0448C28.3556 20.0175 28.3991 19.978 28.4312 19.9298C28.4633 19.8816 28.483 19.8262 28.4885 19.7686C28.4941 19.7109 28.4853 19.6528 28.463 19.5994ZM10.4189 22.8194C10.353 22.8853 10.3159 22.9748 10.3159 23.068C10.3159 23.1612 10.353 23.2506 10.4189 23.3166C10.4848 23.3825 10.5742 23.4195 10.6675 23.4195C10.7607 23.4195 10.8501 23.3825 10.916 23.3166L11.3141 22.9185C11.8508 22.3818 12.5643 22.0863 13.3233 22.0863H14.0006C14.0939 22.0863 14.1833 22.0492 14.2492 21.9833C14.3152 21.9174 14.3522 21.828 14.3522 21.7347C14.3522 21.6415 14.3152 21.5521 14.2492 21.4861C14.1833 21.4202 14.0939 21.3832 14.0006 21.3832H13.3233C12.3765 21.3832 11.4864 21.7519 10.8169 22.4213L10.4189 22.8194ZM26.2685 14.0502C26.3372 14.1188 26.4272 14.1532 26.5171 14.1532C26.6071 14.1532 26.6971 14.1188 26.7657 14.0502L28.7037 12.1121C28.4283 12.0834 28.1437 12.175 27.9339 12.3848L27.698 12.6207C27.912 12.4066 27.9995 12.1217 27.9714 11.8501L26.2685 13.553C26.2026 13.6189 26.1656 13.7084 26.1656 13.8016C26.1656 13.8948 26.2026 13.9842 26.2685 14.0502ZM32.0004 17.3763L29.2644 17.9235C29.2191 17.9325 29.1761 17.9504 29.1377 17.9761C29.0994 18.0018 29.0664 18.0348 29.0408 18.0732C29.0152 18.1116 28.9974 18.1547 28.9885 18.2C28.9795 18.2453 28.9796 18.2919 28.9886 18.3372C28.9977 18.3824 29.0156 18.4255 29.0412 18.4638C29.0669 18.5022 29.0999 18.5351 29.1383 18.5607C29.1768 18.5863 29.2198 18.6041 29.2651 18.6131C29.3104 18.622 29.357 18.622 29.4023 18.6129L31.9251 18.1084C31.974 17.8674 31.9992 17.6222 32.0004 17.3763Z" fill="#F79595"/>
<path d="M29.5815 15.005C29.6475 14.939 29.6845 14.8496 29.6845 14.7564C29.6845 14.6632 29.6475 14.5737 29.5815 14.5078C29.5489 14.4752 29.5101 14.4493 29.4675 14.4316C29.4248 14.4139 29.3791 14.4048 29.333 14.4048C29.2868 14.4048 29.2411 14.4139 29.1984 14.4316C29.1558 14.4493 29.117 14.4752 29.0844 14.5078L28.7109 14.8813C28.4044 15.1879 28.3185 15.656 28.4974 16.0462C28.5595 16.1819 28.6174 16.3195 28.6709 16.4589C28.6969 16.5278 28.72 16.5977 28.7402 16.6685L28.2125 16.7741C28.1672 16.7831 28.1241 16.801 28.0858 16.8267C28.0474 16.8524 28.0145 16.8854 27.9889 16.9238C27.9633 16.9622 27.9455 17.0053 27.9365 17.0506C27.9276 17.0959 27.9276 17.1425 27.9367 17.1878C27.9457 17.2331 27.9636 17.2761 27.9893 17.3145C28.015 17.3528 28.048 17.3857 28.0864 17.4114C28.1248 17.437 28.1679 17.4548 28.2132 17.4637C28.2585 17.4727 28.3051 17.4726 28.3504 17.4636L29.2289 17.2879H29.229L30.7352 16.9866C30.8267 16.9683 30.9071 16.9145 30.9588 16.8369C31.0105 16.7593 31.0293 16.6644 31.011 16.5729C30.9928 16.4815 30.9389 16.4011 30.8613 16.3494C30.7837 16.2976 30.6888 16.2789 30.5974 16.2971L29.4315 16.5303C29.4024 16.4215 29.3679 16.3142 29.3281 16.2089C29.2691 16.055 29.2052 15.903 29.1366 15.7532C29.0796 15.6288 29.1084 15.4783 29.2081 15.3785L29.5815 15.005ZM20.3516 10.2119C20.1371 10.3858 20 10.6515 20 10.9491C20 10.6515 19.8629 10.3859 19.6484 10.2119V12.4017C19.6484 12.495 19.6855 12.5844 19.7514 12.6503C19.8173 12.7162 19.9068 12.7533 20 12.7533C20.0932 12.7533 20.1827 12.7162 20.2486 12.6503C20.3145 12.5844 20.3516 12.495 20.3516 12.4017V10.2119ZM20 13.3835C19.9068 13.3835 19.8173 13.4205 19.7514 13.4864C19.6855 13.5524 19.6484 13.6418 19.6484 13.735V15.735C19.6484 15.8282 19.6855 15.9176 19.7514 15.9836C19.8173 16.0495 19.9068 16.0865 20 16.0865C20.0932 16.0865 20.1827 16.0495 20.2486 15.9836C20.3145 15.9176 20.3516 15.8282 20.3516 15.735V13.735C20.3516 13.6418 20.3145 13.5524 20.2486 13.4864C20.1827 13.4205 20.0932 13.3835 20 13.3835ZM22.9904 11.4905C23.0071 11.3987 22.9866 11.3041 22.9336 11.2275C22.8805 11.1508 22.7991 11.0984 22.7074 11.0817C22.6156 11.0651 22.521 11.0855 22.4444 11.1386C22.3677 11.1917 22.3153 11.2731 22.2986 11.3648L22.1892 11.9671C22.0555 12.7026 22.4937 13.4129 23.2084 13.6193C23.4664 13.6939 23.7182 13.7888 23.9613 13.9031L23.7171 14.4221C23.6972 14.4639 23.6858 14.5092 23.6834 14.5555C23.6811 14.6017 23.6879 14.648 23.7035 14.6916C23.7191 14.7352 23.7431 14.7753 23.7742 14.8096C23.8054 14.8439 23.843 14.8717 23.8849 14.8914C23.9268 14.9111 23.9722 14.9224 24.0184 14.9245C24.0647 14.9266 24.1109 14.9196 24.1545 14.9038C24.198 14.888 24.238 14.8637 24.2721 14.8324C24.3063 14.8011 24.3339 14.7634 24.3534 14.7214L25.6071 12.0559C25.6271 12.0141 25.6385 11.9687 25.6409 11.9225C25.6432 11.8762 25.6364 11.83 25.6208 11.7864C25.6052 11.7427 25.5812 11.7026 25.55 11.6684C25.5189 11.6341 25.4813 11.6063 25.4394 11.5865C25.3975 11.5668 25.3521 11.5556 25.3058 11.5535C25.2596 11.5514 25.2134 11.5584 25.1698 11.5742C25.1263 11.59 25.0863 11.6142 25.0522 11.6455C25.018 11.6768 24.9904 11.7146 24.9709 11.7566L24.2605 13.2669C23.9838 13.1367 23.6972 13.0287 23.4035 12.9437C23.0367 12.8379 22.8121 12.472 22.881 12.0929L22.9904 11.4905Z" fill="#F79595"/>
<path d="M29.6792 14.6959C29.6696 14.6402 29.6465 14.5876 29.612 14.5427C29.6349 14.5935 29.6572 14.6446 29.6792 14.6959ZM28.1397 12.2282C28.209 12.3083 28.2769 12.3895 28.3435 12.4719L28.7033 12.1121C28.5079 12.0916 28.311 12.1322 28.1397 12.2282ZM27.9718 12.0396C27.9778 11.9766 27.9775 11.9131 27.9709 11.8501L27.8801 11.9409C27.9108 11.9736 27.9415 12.0065 27.9718 12.0396ZM31.0109 16.5729C30.9926 16.4815 30.9388 16.4011 30.8612 16.3494C30.7836 16.2977 30.6887 16.2789 30.5973 16.2971L30.0683 16.4029C30.0677 16.6487 30.043 16.8938 29.9947 17.1347L30.7351 16.9866C30.7804 16.9776 30.8234 16.9597 30.8618 16.934C30.9002 16.9083 30.9331 16.8753 30.9587 16.8369C30.9843 16.7985 31.0021 16.7554 31.0111 16.7101C31.02 16.6648 31.02 16.6182 31.0109 16.5729ZM31.9999 17.3763L29.7893 17.8184C29.6742 18.102 29.5259 18.3709 29.3475 18.6195C29.3658 18.6187 29.3839 18.6165 29.4018 18.6129L31.9247 18.1084C31.9736 17.8674 31.9988 17.6222 31.9999 17.3763ZM27.1333 21.9521C27.1232 22.0247 27.1105 22.097 27.0954 22.1687C27.0925 22.1823 27.0904 22.1961 27.0891 22.21C27.1071 22.1252 27.1219 22.0392 27.1333 21.9521ZM28.4625 19.5994C28.4524 19.5752 28.4421 19.5511 28.4317 19.5271C28.2382 19.6631 28.0324 19.7805 27.817 19.8779C27.8446 19.94 27.8897 19.9927 27.9467 20.0297C28.0037 20.0668 28.0702 20.0865 28.1382 20.0865C28.1833 20.0865 28.2292 20.0777 28.2735 20.0592C28.3161 20.0414 28.3548 20.0154 28.3873 19.9827C28.4199 19.95 28.4457 19.9112 28.4632 19.8685C28.4808 19.8258 28.4898 19.78 28.4896 19.7338C28.4895 19.6877 28.4803 19.642 28.4625 19.5994ZM14.0619 24.3185C14.2308 24.1494 14.4132 23.9944 14.6073 23.8548H13.5312L12.5654 24.8206H13.5598L14.0619 24.3185ZM27.8501 21.1798C27.8121 20.769 27.7048 20.3676 27.5328 19.9927C27.3068 20.0733 27.0736 20.1322 26.8365 20.1687C27.0128 20.5116 27.1196 20.8861 27.1522 21.2725C27.1513 21.2604 27.1503 21.2483 27.1493 21.2363C27.1486 21.2291 27.1495 21.2219 27.1517 21.2151C27.154 21.2083 27.1577 21.202 27.1625 21.1967C27.1674 21.1914 27.1733 21.1871 27.1798 21.1842C27.1864 21.1813 27.1935 21.1798 27.2007 21.1798H27.8501V21.1798Z" fill="#F37C7C"/>
<defs>
<linearGradient id="paint0_linear_140_1414" x1="0" y1="20" x2="40" y2="20" gradientUnits="userSpaceOnUse">
<stop stop-color="#4E9DAB"/>
<stop offset="1" stop-color="#336C79"/>
</linearGradient>
</defs>
</svg>
