<svg width="150" height="150" viewBox="0 0 150 150" fill="none" xmlns="http://www.w3.org/2000/svg">
<path d="M104.28 67.0425C104.28 58.9965 100.914 51.2175 95.0475 45.705C89.0985 40.113 81.3 37.3065 73.1355 37.8225C58.3455 38.7405 46.3155 51.0675 45.7455 65.8845C45.4395 73.7865 48.2415 81.3075 53.6355 87.0615C57.66 91.356 59.5935 93.9015 60.1005 98.3775C56.8905 99.183 54.495 102.07 54.495 105.526C54.495 108.895 56.775 111.714 59.862 112.602C58.791 113.884 58.119 115.512 58.119 117.31C58.119 120.835 60.6045 123.783 63.912 124.516C64.245 130.351 69.0825 135 75 135C80.9175 135 85.755 130.351 86.088 124.516C89.3955 123.781 91.881 120.835 91.881 117.31C91.881 115.512 91.209 113.884 90.138 112.6C93.225 111.714 95.505 108.895 95.505 105.526C95.505 102.07 93.111 99.183 89.901 98.3775C90.414 93.9375 92.3685 91.3575 96.438 86.9835C101.487 81.5718 104.29 74.4436 104.28 67.0425ZM75 132C70.8 132 67.335 128.794 66.9225 124.702H83.0775C82.8713 126.702 81.9317 128.555 80.44 129.902C78.9483 131.25 77.0103 131.997 75 132ZM84.4875 121.702H65.5125C63.09 121.702 61.119 119.731 61.119 117.31C61.119 114.889 63.09 112.918 65.5125 112.918H84.4875C86.91 112.918 88.881 114.889 88.881 117.31C88.881 119.731 86.91 121.702 84.4875 121.702ZM92.505 105.525C92.5038 106.689 92.0407 107.806 91.2173 108.629C90.3939 109.453 89.2775 109.916 88.113 109.917H61.887C60.7225 109.916 59.6061 109.453 58.7827 108.629C57.9593 107.806 57.4962 106.689 57.495 105.525C57.4962 104.361 57.9593 103.244 58.7827 102.421C59.6061 101.597 60.7225 101.134 61.887 101.133H88.113C89.2775 101.134 90.3939 101.597 91.2173 102.421C92.0407 103.244 92.5038 104.361 92.505 105.525ZM68.5425 75.612H63.93C61.386 75.612 59.316 73.542 59.316 70.998C59.316 68.454 61.386 66.384 63.93 66.384C66.474 66.384 68.544 68.454 68.544 70.998L68.5425 75.612ZM71.5425 98.1345V78.612H78.4575V98.1345H71.5425ZM86.9175 98.1345H81.4575V78.612H86.0715C90.27 78.612 93.6855 75.1965 93.6855 70.998C93.6855 66.7995 90.27 63.384 86.0715 63.384C81.873 63.384 78.4575 66.7995 78.4575 70.998V75.612H71.5425V70.998C71.5425 66.7995 68.127 63.384 63.9285 63.384C59.73 63.384 56.3145 66.7995 56.3145 70.998C56.3145 75.1965 59.73 78.612 63.9285 78.612H68.5425V98.1345H63.0825C62.4645 92.532 59.895 89.355 55.8225 85.0095C50.982 79.845 48.468 73.0935 48.7425 66C49.2525 52.7025 60.0495 41.64 73.32 40.815C80.6715 40.362 87.6555 42.873 92.994 47.892C98.337 52.9125 101.28 59.715 101.28 67.0425C101.28 73.7085 98.781 80.064 94.2405 84.9405C90.1335 89.355 87.5415 92.574 86.9175 98.1345ZM81.4575 75.612V70.998C81.4575 68.454 83.5275 66.384 86.0715 66.384C88.6155 66.384 90.6855 68.454 90.6855 70.998C90.6855 73.542 88.6155 75.612 86.0715 75.612H81.4575ZM73.5 16.5V29.886C73.5 30.2838 73.658 30.6654 73.9393 30.9467C74.2206 31.228 74.6022 31.386 75 31.386C75.3978 31.386 75.7794 31.228 76.0607 30.9467C76.342 30.6654 76.5 30.2838 76.5 29.886V16.5C76.5 16.1022 76.342 15.7206 76.0607 15.4393C75.7794 15.158 75.3978 15 75 15C74.6022 15 74.2206 15.158 73.9393 15.4393C73.658 15.7206 73.5 16.1022 73.5 16.5ZM52.4445 37.4295C52.7077 37.4292 52.9661 37.3597 53.194 37.228C53.4218 37.0962 53.6109 36.9068 53.7424 36.6788C53.8739 36.4508 53.943 36.1923 53.943 35.9291C53.9429 35.6659 53.8736 35.4074 53.742 35.1795L47.049 23.5875C46.9512 23.4155 46.8204 23.2646 46.6641 23.1434C46.5077 23.0222 46.3289 22.9331 46.138 22.8813C45.9471 22.8295 45.7479 22.8159 45.5517 22.8414C45.3555 22.8669 45.1663 22.9309 44.995 23.0299C44.8237 23.1288 44.6736 23.2606 44.5535 23.4177C44.4333 23.5749 44.3454 23.7542 44.2948 23.9455C44.2443 24.1367 44.2321 24.3361 44.2589 24.5321C44.2856 24.7281 44.351 24.9168 44.451 25.0875L51.144 36.6795C51.2758 36.9077 51.4654 37.0972 51.6937 37.2289C51.922 37.3606 52.1809 37.4298 52.4445 37.4295ZM36.6795 51.144L25.0875 44.451C24.9168 44.351 24.7281 44.2856 24.5321 44.2589C24.3361 44.2321 24.1367 44.2443 23.9455 44.2948C23.7542 44.3454 23.5749 44.4333 23.4177 44.5535C23.2606 44.6736 23.1288 44.8237 23.0299 44.995C22.9309 45.1663 22.8669 45.3555 22.8414 45.5517C22.8159 45.7479 22.8295 45.9471 22.8813 46.138C22.9331 46.3289 23.0222 46.5077 23.1434 46.6641C23.2646 46.8204 23.4155 46.9512 23.5875 47.049L35.1795 53.742C35.5226 53.9199 35.9211 53.9587 36.292 53.8503C36.663 53.7418 36.9778 53.4945 37.1711 53.1598C37.3643 52.8251 37.4211 52.4288 37.3295 52.0534C37.2379 51.6779 37.0051 51.3522 36.6795 51.144ZM16.5 76.5H29.886C30.2838 76.5 30.6654 76.342 30.9467 76.0607C31.228 75.7794 31.386 75.3978 31.386 75C31.386 74.6022 31.228 74.2206 30.9467 73.9393C30.6654 73.658 30.2838 73.5 29.886 73.5H16.5C16.1022 73.5 15.7206 73.658 15.4393 73.9393C15.158 74.2206 15 74.6022 15 75C15 75.3978 15.158 75.7794 15.4393 76.0607C15.7206 76.342 16.1022 76.5 16.5 76.5ZM24.339 105.75C24.594 105.75 24.8505 105.685 25.0875 105.549L36.6795 98.856C36.8515 98.7582 37.0024 98.6274 37.1236 98.4711C37.2448 98.3147 37.3339 98.1359 37.3857 97.945C37.4375 97.7541 37.4511 97.5549 37.4256 97.3587C37.4001 97.1625 37.3361 96.9733 37.2371 96.802C37.1382 96.6307 37.0064 96.4806 36.8493 96.3605C36.6921 96.2403 36.5128 96.1524 36.3215 96.1018C36.1303 96.0513 35.9309 96.039 35.7349 96.0658C35.5389 96.0926 35.3502 96.1579 35.1795 96.258L23.5875 102.951C23.3016 103.116 23.0781 103.371 22.9517 103.676C22.8254 103.981 22.8032 104.319 22.8887 104.638C22.9741 104.957 23.1624 105.239 23.4244 105.44C23.6864 105.641 24.0088 105.75 24.339 105.75ZM113.32 98.856L124.912 105.549C125.256 105.727 125.654 105.766 126.025 105.657C126.396 105.549 126.711 105.302 126.904 104.967C127.097 104.632 127.154 104.236 127.062 103.86C126.971 103.485 126.738 103.159 126.412 102.951L114.82 96.258C114.65 96.1579 114.461 96.0926 114.265 96.0658C114.069 96.039 113.87 96.0513 113.678 96.1018C113.487 96.1524 113.308 96.2403 113.151 96.3605C112.994 96.4806 112.862 96.6307 112.763 96.802C112.664 96.9733 112.6 97.1625 112.574 97.3587C112.549 97.5549 112.562 97.7541 112.614 97.945C112.666 98.1359 112.755 98.3147 112.876 98.4711C112.998 98.6274 113.149 98.7582 113.32 98.856ZM133.5 73.5H120.114C119.716 73.5 119.335 73.658 119.053 73.9393C118.772 74.2206 118.614 74.6022 118.614 75C118.614 75.3978 118.772 75.7794 119.053 76.0607C119.335 76.342 119.716 76.5 120.114 76.5H133.5C133.898 76.5 134.279 76.342 134.561 76.0607C134.842 75.7794 135 75.3978 135 75C135 74.6022 134.842 74.2206 134.561 73.9393C134.279 73.658 133.898 73.5 133.5 73.5ZM112.77 53.193C112.868 53.3638 113 53.5135 113.156 53.6335C113.312 53.7536 113.491 53.8416 113.681 53.8926C113.872 53.9436 114.071 53.9565 114.266 53.9307C114.461 53.9048 114.65 53.8407 114.82 53.742L126.412 47.049C126.584 46.9512 126.735 46.8204 126.857 46.6641C126.978 46.5077 127.067 46.3289 127.119 46.138C127.171 45.9471 127.184 45.7479 127.159 45.5517C127.133 45.3555 127.069 45.1663 126.97 44.995C126.871 44.8237 126.739 44.6736 126.582 44.5535C126.425 44.4333 126.246 44.3454 126.055 44.2948C125.863 44.2443 125.664 44.2321 125.468 44.2589C125.272 44.2856 125.083 44.351 124.912 44.451L113.32 51.144C112.976 51.3429 112.725 51.6705 112.622 52.0548C112.519 52.4391 112.571 52.8485 112.77 53.193ZM105 23.037C104.655 22.8386 104.246 22.7852 103.862 22.8884C103.477 22.9916 103.15 23.243 102.951 23.5875L96.258 35.1795C96.1579 35.3502 96.0926 35.5389 96.0658 35.7349C96.039 35.9309 96.0513 36.1303 96.1018 36.3215C96.1524 36.5128 96.2403 36.6921 96.3605 36.8493C96.4806 37.0064 96.6307 37.1382 96.802 37.2371C96.9733 37.3361 97.1625 37.4001 97.3587 37.4256C97.5549 37.4511 97.7541 37.4375 97.945 37.3857C98.1359 37.3339 98.3147 37.2448 98.4711 37.1236C98.6274 37.0024 98.7582 36.8515 98.856 36.6795L105.549 25.0875C105.648 24.9168 105.712 24.7284 105.738 24.533C105.764 24.3375 105.751 24.1389 105.7 23.9484C105.649 23.758 105.561 23.5795 105.44 23.4231C105.32 23.2667 105.171 23.1355 105 23.037Z" fill="#D9822B"/>
</svg>
