<svg width="40" height="40" viewBox="0 0 40 40" fill="none" xmlns="http://www.w3.org/2000/svg">
<rect x="0.5" y="0.5" width="39" height="39" rx="19.5" fill="#ECF7F7"/>
<rect x="0.5" y="0.5" width="39" height="39" rx="19.5" stroke="url(#paint0_linear_140_1057)"/>
<g clip-path="url(#clip0_140_1057)">
<path d="M13.9347 17.8574L16.7472 22.7288L12.6877 25.0725C11.3424 25.8492 9.62258 25.3886 8.84582 24.0431C8.07383 22.707 8.52154 20.9825 9.87519 20.2012L13.9347 17.8574ZM27.1933 19.4288C27.5491 20.0446 27.1155 20.8172 26.4044 20.8346L25.877 20.9382L25.8653 20.8787L19.8311 10.4268L19.7917 10.3959L20.1291 9.96594C20.4999 9.35858 21.3854 9.36884 21.7412 9.98515C31.1065 26.2054 19.2914 5.7417 27.1933 19.4288Z" fill="#2BBDC4"/>
<path d="M17.7013 28.1322C18.0898 28.8044 17.8593 29.6644 17.1866 30.053C16.5149 30.4415 15.6532 30.2102 15.2656 29.5384L12.6875 25.0725L15.1231 23.6663C15.1455 23.7051 17.6975 28.1254 17.7013 28.1322Z" fill="#495D85"/>
<path d="M25.7082 13.1062L26.6457 14.73L25.4907 16.4793L23.6157 13.2318L25.7082 13.1062Z" fill="#E9EEF0"/>
<path d="M25.8652 20.8788L25.8769 20.9383L16.7471 22.7289L13.9346 17.8576L19.7916 10.396L19.831 10.4269L25.8652 20.8788Z" fill="#ADF3FF"/>
<path d="M14.4205 22.4484C14.6446 22.3191 14.7213 22.0322 14.592 21.808C14.4626 21.5841 14.1758 21.5072 13.9517 21.6365C13.7276 21.7659 13.6507 22.0529 13.7802 22.2768C13.9094 22.5009 14.1964 22.5778 14.4205 22.4484Z" fill="black"/>
<path d="M12.4993 25.6837L14.8599 29.7726C15.3693 30.656 16.5151 30.983 17.4213 30.4591C18.318 29.9409 18.6262 28.7953 18.1074 27.8979L16.7012 25.4618L17.919 24.7587C18.1432 24.6291 18.22 24.3425 18.0906 24.1184L17.481 23.0626C17.5537 23.0485 18.0316 22.9548 26.4594 21.3015C27.5013 21.2449 28.1255 20.1054 27.5992 19.1945L26.0414 16.4962L27.0369 14.9884C27.0849 14.9157 27.1117 14.8311 27.1143 14.7441C27.117 14.6571 27.0953 14.571 27.0518 14.4956L26.1143 12.8719C26.0707 12.7965 26.007 12.7348 25.9303 12.6936C25.8536 12.6524 25.767 12.6333 25.6801 12.6384L23.8767 12.7466L22.1473 9.75098C21.8968 9.31705 21.448 9.05427 20.947 9.04804C20.941 9.04785 20.9351 9.04785 20.9291 9.04785C20.4449 9.04785 20.0055 9.28884 19.7452 9.69623L13.6217 17.4969L9.64082 19.7952C8.07511 20.6989 7.53267 22.7076 8.43984 24.2775C9.26859 25.7131 11.0158 26.2778 12.4993 25.6838V25.6837ZM17.2957 28.3668C17.5546 28.8147 17.4014 29.3878 16.9522 29.6473C16.5016 29.9078 15.9277 29.7478 15.6718 29.3041L13.328 25.2441L14.9518 24.3066C17.6643 29.0054 17.2522 28.2915 17.2957 28.3668ZM16.2324 24.6497L15.7637 23.8379L16.5756 23.3691L17.0443 24.181L16.2324 24.6497ZM25.4472 13.5914L26.095 14.7135L25.5173 15.5884L24.4008 13.6543L25.4472 13.5914ZM20.5292 10.2102C20.655 10.0044 20.8545 9.9832 20.9355 9.98535C21.0155 9.98629 21.2149 10.0112 21.3352 10.2196L26.7874 19.6632C26.965 19.9707 26.7491 20.3572 26.393 20.366C26.3291 20.3674 26.2996 20.379 26.1359 20.4096L20.3686 10.4202C20.4896 10.2646 20.5052 10.2496 20.5292 10.2102ZM19.7448 11.2149L25.1634 20.6004L16.9856 22.2044L14.499 17.8975L19.7448 11.2149ZM9.25171 23.8087C9.04608 23.4532 8.93761 23.0499 8.93718 22.6392C8.93718 21.8032 9.38648 21.0246 10.1095 20.6072L13.7631 18.4978L16.1068 22.5572L12.4533 24.6668C11.334 25.3127 9.89789 24.9279 9.25176 23.8087H9.25171Z" fill="black"/>
<path d="M12.9682 22.7456C12.8388 22.5215 12.552 22.4446 12.3279 22.5741L11.516 23.0428C11.2922 23.1721 11.005 23.095 10.8757 22.8713C10.7462 22.6472 10.4595 22.5702 10.2354 22.6997C10.0113 22.8292 9.93437 23.1159 10.0638 23.34C10.4496 24.0084 11.3102 24.244 11.9848 23.8547L12.7967 23.3859C13.0208 23.2565 13.0977 22.9699 12.9682 22.7456ZM31.3035 10.0506L28.6915 11.5041C28.4654 11.63 28.3839 11.9155 28.5099 12.1416C28.6355 12.3676 28.9208 12.4494 29.1474 12.3233L31.7592 10.8698C31.9856 10.7438 32.0669 10.4583 31.9409 10.2322C31.8151 10.0059 31.5296 9.92462 31.3035 10.0506ZM31.0296 14.9054L29.2185 14.4202C28.9683 14.3532 28.7113 14.5015 28.6442 14.7516C28.5772 15.0017 28.7258 15.2587 28.9758 15.3257L30.7871 15.8109C31.0387 15.8784 31.2945 15.7277 31.3612 15.4795C31.4282 15.2294 31.2797 14.9723 31.0296 14.9054ZM26.4783 8.34751L25.9925 10.1588C25.9255 10.4089 26.0738 10.6658 26.3239 10.733C26.5739 10.7998 26.831 10.6519 26.8982 10.4016L27.3838 8.59032C27.4508 8.3402 27.3025 8.08314 27.0524 8.01611C26.8024 7.94907 26.5453 8.09739 26.4783 8.34751H26.4783Z" fill="black"/>
</g>
<defs>
<linearGradient id="paint0_linear_140_1057" x1="0" y1="20" x2="40" y2="20" gradientUnits="userSpaceOnUse">
<stop stop-color="#4E9DAB"/>
<stop offset="1" stop-color="#336C79"/>
</linearGradient>
<clipPath id="clip0_140_1057">
<rect width="24" height="24" fill="white" transform="translate(8 8)"/>
</clipPath>
</defs>
</svg>
