<svg width="150" height="150" viewBox="0 0 150 150" fill="none" xmlns="http://www.w3.org/2000/svg">
<path d="M75 140.625C86.3037 140.625 97.4158 137.705 107.259 132.148C117.103 126.591 125.344 118.586 131.185 108.908C137.026 99.2303 140.267 88.2078 140.596 76.9089C140.925 65.6099 138.33 54.4176 133.062 44.4164C132.764 43.8796 132.267 43.4813 131.678 43.307C131.089 43.1327 130.456 43.1964 129.913 43.4845C129.371 43.7725 128.964 44.2618 128.778 44.8472C128.593 45.4326 128.645 46.0673 128.923 46.6149C133.536 55.3646 135.944 65.1084 135.938 75C132.598 155.829 17.4023 155.829 14.0625 75C13.5 29.8078 63.75 -0.4828 103.388 21.0797C103.659 21.2239 103.957 21.3131 104.264 21.3423C104.57 21.3714 104.879 21.34 105.173 21.2496C105.468 21.1593 105.741 21.0119 105.978 20.8159C106.216 20.6198 106.412 20.379 106.556 20.107C106.7 19.8351 106.79 19.5374 106.819 19.231C106.848 18.9246 106.817 18.6155 106.726 18.3212C106.636 18.027 106.488 17.7534 106.292 17.5161C106.096 17.2788 105.856 17.0825 105.584 16.9383C96.1568 11.965 85.6582 9.36873 75 9.37501C-12.0469 12.9727 -12.0469 137.03 75 140.625Z" fill="url(#paint0_linear_137_897)"/>
<path d="M75.0001 56.25C77.0291 56.2486 79.0442 56.5853 80.9626 57.2461C81.5503 57.4484 82.1943 57.409 82.753 57.1364C83.3116 56.8639 83.7391 56.3807 83.9415 55.793C84.9728 51.6516 77.672 51.8156 75.0001 51.5625C43.9103 52.8469 43.9126 97.1531 75.0001 98.4375C81.214 98.4307 87.1715 95.9592 91.5654 91.5653C95.9593 87.1714 98.4308 81.2139 98.4376 75C98.1985 72.2812 98.3556 65.0555 94.2282 66.082C93.6411 66.2844 93.1582 66.7115 92.8858 67.2696C92.6133 67.8277 92.5735 68.4712 92.7751 69.0586C93.4279 70.9711 93.7574 72.9791 93.7501 75C92.8103 99.8367 57.1876 99.8367 56.2501 75C56.2563 70.0291 58.2337 65.2636 61.7487 61.7486C65.2637 58.2336 70.0292 56.2562 75.0001 56.25Z" fill="url(#paint1_linear_137_897)"/>
<path d="M97.4415 39.2227C97.5909 38.9534 97.6858 38.6573 97.7207 38.3513C97.7556 38.0454 97.7299 37.7355 97.645 37.4395C97.5601 37.1435 97.4177 36.8671 97.226 36.6261C97.0342 36.3851 96.7969 36.1843 96.5274 36.0352C89.9382 32.3883 82.5313 30.473 75.0001 30.4688C15.9329 32.9109 15.9329 117.091 75.0001 119.531C82.7466 119.536 90.3601 117.518 97.0878 113.679C103.816 109.839 109.425 104.309 113.36 97.637C117.296 90.9648 119.422 83.3809 119.528 75.6351C119.634 67.8894 117.716 60.2501 113.965 53.4727C113.663 52.9288 113.158 52.5269 112.561 52.3555C111.963 52.1841 111.321 52.2571 110.777 52.5586C110.234 52.8601 109.832 53.3653 109.66 53.963C109.489 54.5608 109.562 55.2022 109.863 55.7461C124.723 81.5086 104.766 115.359 75.0001 114.844C64.4365 114.832 54.3089 110.63 46.8393 103.161C39.3697 95.6912 35.1681 85.5636 35.1563 75C34.6454 45.2367 68.4868 25.2773 94.254 40.1367C94.5231 40.2868 94.8193 40.3821 95.1254 40.4174C95.4315 40.4526 95.7415 40.4271 96.0377 40.3421C96.3339 40.2572 96.6104 40.1146 96.8513 39.9224C97.0922 39.7303 97.2928 39.4925 97.4415 39.2227Z" fill="url(#paint2_linear_137_897)"/>
<path d="M102.009 32.5735L102.87 43.8165L73.343 73.343C72.916 73.7851 72.6798 74.3771 72.6851 74.9916C72.6905 75.6062 72.937 76.194 73.3715 76.6286C73.8061 77.0631 74.3939 77.3096 75.0084 77.3149C75.623 77.3203 76.215 77.084 76.657 76.6571L106.184 47.1305L117.427 47.9907C117.763 48.0163 118.102 47.9689 118.418 47.8516C118.735 47.7342 119.023 47.5499 119.262 47.311L136.32 30.2532C136.63 29.9336 136.843 29.5329 136.935 29.0972C137.027 28.6616 136.994 28.2088 136.839 27.7911C136.685 27.3735 136.416 27.0081 136.062 26.737C135.709 26.466 135.286 26.3004 134.843 26.2594L124.53 25.4696L123.741 15.1571C123.7 14.7137 123.534 14.291 123.263 13.9377C122.992 13.5844 122.627 13.315 122.209 13.1606C121.791 13.0062 121.339 12.9731 120.903 13.0651C120.467 13.1571 120.066 13.3705 119.747 13.6805L102.689 30.7384C102.45 30.977 102.265 31.2646 102.148 31.5814C102.031 31.8982 101.983 32.2367 102.009 32.5735ZM119.456 20.5993C120.394 31.5141 118.547 29.5923 129.401 30.5438L116.709 43.2352L107.473 42.5274L106.765 33.293L119.456 20.5993Z" fill="url(#paint3_linear_137_897)"/>
<defs>
<linearGradient id="paint0_linear_137_897" x1="9.71484" y1="75" x2="140.624" y2="75" gradientUnits="userSpaceOnUse">
<stop stop-color="#4E9DAB"/>
<stop offset="1" stop-color="#336C79"/>
</linearGradient>
<linearGradient id="paint1_linear_137_897" x1="51.6836" y1="75" x2="98.4376" y2="75" gradientUnits="userSpaceOnUse">
<stop stop-color="#4E9DAB"/>
<stop offset="1" stop-color="#336C79"/>
</linearGradient>
<linearGradient id="paint2_linear_137_897" x1="30.6997" y1="75" x2="119.532" y2="75" gradientUnits="userSpaceOnUse">
<stop stop-color="#4E9DAB"/>
<stop offset="1" stop-color="#336C79"/>
</linearGradient>
<linearGradient id="paint3_linear_137_897" x1="72.6851" y1="45.1646" x2="136.986" y2="45.1646" gradientUnits="userSpaceOnUse">
<stop stop-color="#4E9DAB"/>
<stop offset="1" stop-color="#336C79"/>
</linearGradient>
</defs>
</svg>
