<svg width="40" height="40" viewBox="0 0 40 40" fill="none" xmlns="http://www.w3.org/2000/svg">
<rect x="0.5" y="0.5" width="39" height="39" rx="19.5" fill="#ECF7F7"/>
<rect x="0.5" y="0.5" width="39" height="39" rx="19.5" stroke="url(#paint0_linear_140_1274)"/>
<path d="M30.125 19.625C30.0255 19.625 29.9302 19.6645 29.8598 19.7348C29.7895 19.8052 29.75 19.9005 29.75 20C29.2149 32.9341 10.7836 32.9315 10.25 20C10.253 17.4151 11.2812 14.9368 13.109 13.109C14.9368 11.2812 17.4151 10.253 20 10.25C20.0995 10.25 20.1948 10.2105 20.2652 10.1402C20.3355 10.0698 20.375 9.97446 20.375 9.875C20.375 9.77554 20.3355 9.68016 20.2652 9.60984C20.1948 9.53951 20.0995 9.5 20 9.5C17.2162 9.50308 14.5472 10.6103 12.5788 12.5788C10.6103 14.5472 9.50308 17.2162 9.5 20C10.0767 33.9294 29.9255 33.926 30.5 20C30.5 19.9005 30.4605 19.8052 30.3902 19.7348C30.3198 19.6645 30.2245 19.625 30.125 19.625Z" fill="url(#paint1_linear_140_1274)"/>
<path d="M20.3752 12.1954V10.9294C20.3752 10.83 20.3357 10.7346 20.2654 10.6643C20.195 10.594 20.0996 10.5544 20.0002 10.5544C19.9007 10.5544 19.8053 10.594 19.735 10.6643C19.6647 10.7346 19.6252 10.83 19.6252 10.9294V12.1954C19.6252 12.2949 19.6647 12.3903 19.735 12.4606C19.8053 12.5309 19.9007 12.5704 20.0002 12.5704C20.0996 12.5704 20.195 12.5309 20.2654 12.4606C20.3357 12.3903 20.3752 12.2949 20.3752 12.1954ZM15.9037 13.2788C15.9692 13.2781 16.0334 13.2603 16.09 13.2272C16.1465 13.1941 16.1935 13.1468 16.2262 13.09C16.259 13.0333 16.2764 12.969 16.2767 12.9034C16.277 12.8379 16.2602 12.7734 16.2281 12.7163L15.9843 12.2944C15.9342 12.209 15.8524 12.1469 15.7567 12.1216C15.6609 12.0962 15.5591 12.1098 15.4733 12.1593C15.3875 12.2089 15.3249 12.2903 15.2989 12.3858C15.273 12.4814 15.2859 12.5834 15.3348 12.6694C15.4642 12.8618 15.6097 13.3066 15.9037 13.2788ZM13.0916 15.5783L12.6697 15.3346C12.5835 15.2848 12.4811 15.2714 12.385 15.2972C12.2889 15.3229 12.207 15.3858 12.1572 15.472C12.1075 15.5582 12.0941 15.6606 12.1198 15.7567C12.1456 15.8528 12.2085 15.9347 12.2947 15.9844C12.4214 16.0422 12.7586 16.2957 12.9037 16.2781C12.9854 16.2764 13.0643 16.2483 13.1286 16.1979C13.1929 16.1475 13.2391 16.0776 13.2603 15.9987C13.2815 15.9198 13.2765 15.8362 13.2461 15.7604C13.2156 15.6846 13.1614 15.6207 13.0916 15.5783ZM12.5707 19.9999C12.5707 19.9005 12.5312 19.8051 12.4609 19.7348C12.3905 19.6645 12.2951 19.6249 12.1957 19.6249H10.9297C10.8302 19.6249 10.7348 19.6645 10.6645 19.7348C10.5942 19.8051 10.5547 19.9005 10.5547 19.9999C10.5547 20.0994 10.5942 20.1948 10.6645 20.2651C10.7348 20.3354 10.8302 20.3749 10.9297 20.3749H12.1953C12.2948 20.3749 12.3902 20.3354 12.4605 20.2651C12.5308 20.1948 12.5707 20.0994 12.5707 19.9999ZM12.4826 24.7156C12.6266 24.7343 12.9674 24.4793 13.0919 24.4216C13.1781 24.3718 13.2409 24.2898 13.2666 24.1937C13.2923 24.0976 13.2788 23.9953 13.229 23.9091C13.1792 23.823 13.0973 23.7602 13.0012 23.7345C12.9051 23.7088 12.8027 23.7223 12.7166 23.7721L12.2947 24.0158C12.2248 24.0582 12.1706 24.1221 12.1402 24.1979C12.1098 24.2737 12.1048 24.3573 12.1259 24.4362C12.1471 24.5151 12.1933 24.585 12.2577 24.6354C12.322 24.6858 12.4009 24.7139 12.4826 24.7156ZM15.5786 26.9086L15.3348 27.3304C15.2851 27.4166 15.2716 27.519 15.2974 27.6151C15.3232 27.7112 15.3861 27.7932 15.4722 27.8429C15.5584 27.8926 15.6608 27.9061 15.7569 27.8803C15.853 27.8545 15.935 27.7916 15.9847 27.7054L16.2281 27.2836C16.277 27.1975 16.2899 27.0955 16.264 27C16.238 26.9044 16.1753 26.823 16.0896 26.7735C16.0038 26.724 15.902 26.7104 15.8062 26.7357C15.7105 26.761 15.6286 26.8231 15.5786 26.9086ZM19.6252 27.8048V29.0701C19.6252 29.1695 19.6647 29.2649 19.735 29.3352C19.8053 29.4056 19.9007 29.4451 20.0002 29.4451C20.0996 29.4451 20.195 29.4056 20.2654 29.3352C20.3357 29.2649 20.3752 29.1695 20.3752 29.0701V27.8048C20.3752 27.7054 20.3357 27.61 20.2654 27.5397C20.195 27.4693 20.0996 27.4298 20.0002 27.4298C19.9007 27.4298 19.8053 27.4693 19.735 27.5397C19.6647 27.61 19.6252 27.7054 19.6252 27.8048ZM23.9096 26.7713C23.8234 26.821 23.7606 26.903 23.7349 26.999C23.7091 27.0951 23.7226 27.1974 23.7723 27.2836L24.0161 27.7054C24.0405 27.7484 24.0732 27.7862 24.1123 27.8165C24.1514 27.8468 24.1961 27.869 24.2438 27.882C24.2915 27.895 24.3413 27.8983 24.3904 27.892C24.4394 27.8856 24.4867 27.8696 24.5296 27.8449C24.5724 27.8201 24.6099 27.7872 24.6399 27.7479C24.67 27.7086 24.692 27.6638 24.7046 27.6159C24.7172 27.5681 24.7203 27.5183 24.7136 27.4693C24.7069 27.4203 24.6906 27.3731 24.6656 27.3304L24.4218 26.9086C24.3973 26.8658 24.3645 26.8284 24.3255 26.7984C24.2864 26.7683 24.2418 26.7463 24.1942 26.7336C24.1466 26.7208 24.097 26.7176 24.0481 26.7241C23.9993 26.7305 23.9522 26.7466 23.9096 26.7713ZM27.2838 23.7721C27.1977 23.7231 27.0958 23.7102 27.0002 23.7362C26.9046 23.7621 26.8232 23.8248 26.7737 23.9106C26.7242 23.9963 26.7106 24.0982 26.7359 24.1939C26.7612 24.2896 26.8234 24.3715 26.9088 24.4216C27.0352 24.4797 27.3723 24.7336 27.5178 24.7156C27.5995 24.7139 27.6784 24.6858 27.7427 24.6354C27.807 24.585 27.8532 24.5151 27.8744 24.4362C27.8956 24.3573 27.8906 24.2737 27.8602 24.1979C27.8298 24.1221 27.7755 24.0582 27.7057 24.0158L27.2838 23.7721ZM29.4457 19.9999C29.4457 19.9005 29.4062 19.8051 29.3359 19.7348C29.2655 19.6645 29.1701 19.6249 29.0707 19.6249H27.8047C27.7052 19.6249 27.6098 19.6645 27.5395 19.7348C27.4692 19.8051 27.4297 19.9005 27.4297 19.9999C27.4297 20.0994 27.4692 20.1948 27.5395 20.2651C27.6098 20.3354 27.7052 20.3749 27.8047 20.3749H29.0707C29.1701 20.3749 29.2655 20.3354 29.3359 20.2651C29.4062 20.1948 29.4457 20.0994 29.4457 19.9999ZM15.0963 16.3129C15.0225 16.266 14.9347 16.2462 14.8479 16.2569C14.7611 16.2677 14.6808 16.3083 14.6207 16.3718C14.5606 16.4353 14.5245 16.5178 14.5186 16.605C14.5126 16.6923 14.5372 16.7789 14.5882 16.8499L19.6507 23.5999C19.6847 23.6445 19.7281 23.681 19.778 23.7067C19.8278 23.7324 19.8827 23.7466 19.9387 23.7484C19.9948 23.7502 20.0505 23.7395 20.1018 23.7171C20.1532 23.6946 20.1989 23.661 20.2357 23.6187L30.3607 11.8062C30.4194 11.7344 30.4495 11.6434 30.4451 11.5508C30.4408 11.4581 30.4023 11.3704 30.3372 11.3044C30.272 11.2384 30.1847 11.1988 30.0922 11.1933C29.9996 11.1877 29.9082 11.2167 29.8357 11.2744L19.9259 19.5327L15.0963 16.3129ZM20.1907 20.2879L26.8829 14.7117L19.9702 22.7753L16.5014 18.1512L19.7426 20.3119C19.8099 20.3567 19.8899 20.3785 19.9706 20.3742C20.0513 20.3699 20.1285 20.3396 20.1907 20.2879Z" fill="url(#paint2_linear_140_1274)"/>
<defs>
<linearGradient id="paint0_linear_140_1274" x1="0" y1="20" x2="40" y2="20" gradientUnits="userSpaceOnUse">
<stop stop-color="#4E9DAB"/>
<stop offset="1" stop-color="#336C79"/>
</linearGradient>
<linearGradient id="paint1_linear_140_1274" x1="9.5" y1="19.9729" x2="30.5" y2="19.9729" gradientUnits="userSpaceOnUse">
<stop stop-color="#4E9DAB"/>
<stop offset="1" stop-color="#336C79"/>
</linearGradient>
<linearGradient id="paint2_linear_140_1274" x1="10.5547" y1="19.9998" x2="30.4455" y2="19.9998" gradientUnits="userSpaceOnUse">
<stop stop-color="#4E9DAB"/>
<stop offset="1" stop-color="#336C79"/>
</linearGradient>
</defs>
</svg>
