<svg width="40" height="40" viewBox="0 0 40 40" fill="none" xmlns="http://www.w3.org/2000/svg">
<rect x="0.5" y="0.5" width="39" height="39" rx="19.5" fill="#ECF7F7"/>
<rect x="0.5" y="0.5" width="39" height="39" rx="19.5" stroke="url(#paint0_linear_140_979)"/>
<g clip-path="url(#clip0_140_979)">
<path d="M27.7345 18.5938C27.7345 20.7594 26.8767 22.7563 25.3018 24.2188C24.05 25.4141 23.7829 26.3422 23.5157 27.7344C23.5157 27.7344 22.8408 28.5968 22.4188 29.1875H17.736L16.4845 27.7344C16.0907 26.3281 15.8376 25.3155 14.6423 24.1765C12.7862 22.3906 11.9424 19.7891 12.3923 17.2155C12.9126 14.15 15.3032 11.661 18.3408 11.0282C18.8892 10.9156 19.4517 10.8594 20.0001 10.8594C21.772 10.8594 23.5017 11.4499 24.8797 12.589C26.6939 14.0655 27.7345 16.2594 27.7345 18.5938Z" fill="#FFE470"/>
<path d="M27.7344 18.5938C27.7344 20.7594 26.8766 22.7563 25.3017 24.2188C24.0499 25.4141 23.7828 26.3422 23.5156 27.7344C23.5156 27.7344 22.8407 28.5968 22.4187 29.1875H20V10.8594C21.7719 10.8594 23.5016 11.4499 24.8796 12.589C26.6937 14.0655 27.7344 16.2594 27.7344 18.5938Z" fill="#FFD400"/>
<path d="M10.1094 19.2969H8.70312C8.31453 19.2969 8 18.9825 8 18.5938C8 18.2052 8.31453 17.8906 8.70312 17.8906H10.1094C10.498 17.8906 10.8125 18.2052 10.8125 18.5938C10.8125 18.9825 10.498 19.2969 10.1094 19.2969Z" fill="#FDBF00"/>
<path d="M31.2969 19.2969H29.8906C29.502 19.2969 29.1875 18.9825 29.1875 18.5938C29.1875 18.2052 29.502 17.8906 29.8906 17.8906H31.2969C31.6855 17.8906 32 18.2052 32 18.5938C32 18.9825 31.6855 19.2969 31.2969 19.2969Z" fill="#FF9F00"/>
<path d="M11.4745 14.3751C11.355 14.3751 11.2341 14.3449 11.1237 14.281L9.90549 13.5779C9.56916 13.3836 9.45381 12.9539 9.64806 12.6173C9.84254 12.2807 10.273 12.1654 10.6086 12.3599L11.8269 13.063C12.1632 13.2572 12.2785 13.687 12.0843 14.0235C12.0225 14.1305 11.9336 14.2193 11.8265 14.281C11.7195 14.3428 11.5981 14.3752 11.4745 14.3751Z" fill="#FDBF00"/>
<path d="M29.7421 24.9219C29.6226 24.9219 29.5017 24.8917 29.3913 24.8278L28.1731 24.1247C27.8367 23.9304 27.7214 23.5007 27.9156 23.1641C28.1094 22.8275 28.5399 22.7129 28.8762 22.9067L30.0944 23.6098C30.4308 23.804 30.5461 24.2338 30.3519 24.5704C30.29 24.6773 30.2011 24.7661 30.0941 24.8278C29.9871 24.8896 29.8657 24.922 29.7421 24.9219Z" fill="#FF9F00"/>
<path d="M15.0788 10.6243C14.9553 10.6244 14.8339 10.5919 14.7268 10.5302C14.6198 10.4685 14.5309 10.3797 14.4691 10.2727L13.7659 9.05452C13.5714 8.71815 13.6868 8.28821 14.0234 8.09396C14.3584 7.90023 14.7889 8.01577 14.9839 8.3514L15.6871 9.56959C15.8815 9.90596 15.7662 10.3359 15.4296 10.5302C15.323 10.5919 15.202 10.6244 15.0788 10.6243ZM10.2578 24.9219C10.1343 24.922 10.0129 24.8895 9.90582 24.8278C9.79878 24.7661 9.70988 24.6773 9.64806 24.5703C9.45381 24.2338 9.56916 23.804 9.90549 23.6098L11.1237 22.9066C11.458 22.7129 11.8885 22.8275 12.0843 23.1641C12.2785 23.5006 12.1632 23.9304 11.8269 24.1246L10.6086 24.8278C10.502 24.8896 10.381 24.922 10.2578 24.9219Z" fill="#FDBF00"/>
<path d="M28.5253 14.3749C28.4017 14.375 28.2803 14.3426 28.1733 14.2809C28.0662 14.2191 27.9773 14.1303 27.9155 14.0234C27.7213 13.6868 27.8366 13.2571 28.1729 13.0628L29.3912 12.3597C29.7255 12.1652 30.1574 12.2806 30.3517 12.6171C30.546 12.9537 30.4306 13.3834 30.0943 13.5777L28.8761 14.2808C28.7695 14.3426 28.6485 14.3751 28.5253 14.3749ZM24.921 10.6315C24.8016 10.6315 24.6808 10.6013 24.5702 10.5374C24.2336 10.3431 24.1183 9.91318 24.3127 9.57685L25.0159 8.35862C25.2109 8.02299 25.6393 7.90768 25.9764 8.10118C26.313 8.29567 26.4283 8.72542 26.2339 9.06174L25.5307 10.28C25.4689 10.387 25.38 10.4758 25.273 10.5375C25.1659 10.5992 25.0445 10.6316 24.921 10.6315Z" fill="#FF9F00"/>
<path d="M24.7109 18.1016C24.4438 17.8203 23.9937 17.8203 23.7266 18.1016L22.8125 19.0016L21.8984 18.1016C21.6312 17.8203 21.1813 17.8203 20.9141 18.1016L20 19.0016L19.0859 18.1016C18.8187 17.8203 18.3688 17.8203 18.1016 18.1016L17.1875 19.0016L16.2734 18.1016C16.0063 17.8203 15.5562 17.8203 15.2891 18.1016C15.0078 18.3687 15.0078 18.8188 15.2891 19.0859L16.6391 20.4501L19.2969 24.4297V28.4375C19.2969 28.8312 19.6062 29.1875 20 29.1875C20.3938 29.1875 20.7031 28.8312 20.7031 28.4375V24.4297L23.3609 20.4501L24.7109 19.0859C24.9922 18.8188 24.9922 18.3687 24.7109 18.1016ZM20 22.9531L18.0875 20.0844L18.5938 19.5922L19.5078 20.4922C19.6344 20.6328 19.8173 20.7031 20 20.7031C20.1827 20.7031 20.3656 20.6328 20.4922 20.4922L21.4062 19.5922L21.9125 20.0844L20 22.9531Z" fill="#FDBF00"/>
<path d="M24.7109 19.0859L23.3609 20.4501L20.7031 24.4297V28.4375C20.7031 28.8312 20.3938 29.1875 20 29.1875V22.9531L21.9125 20.0844L21.4062 19.5922L20.4922 20.4922C20.3656 20.6328 20.1827 20.7031 20 20.7031V19.0016L20.9141 18.1016C21.1812 17.8203 21.6313 17.8203 21.8984 18.1016L22.8125 19.0016L23.7267 18.1016C23.9939 17.8203 24.4438 17.8203 24.7109 18.1016C24.9922 18.3687 24.9922 18.8188 24.7109 19.0859Z" fill="#FF9F00"/>
<path d="M16.4844 27.7344V29.8906C16.4844 31.0577 17.4265 32 18.5938 32H21.4062C22.5735 32 23.5156 31.0577 23.5156 29.8906V27.7344H16.4844Z" fill="#DEECF1"/>
<path d="M23.5156 27.7344V29.8906C23.5156 31.0577 22.5735 32 21.4062 32H20V27.7344H23.5156Z" fill="#A8D3D8"/>
</g>
<defs>
<linearGradient id="paint0_linear_140_979" x1="0" y1="20" x2="40" y2="20" gradientUnits="userSpaceOnUse">
<stop stop-color="#4E9DAB"/>
<stop offset="1" stop-color="#336C79"/>
</linearGradient>
<clipPath id="clip0_140_979">
<rect width="24" height="24" fill="white" transform="translate(8 8)"/>
</clipPath>
</defs>
</svg>
