<svg width="40" height="40" viewBox="0 0 40 40" fill="none" xmlns="http://www.w3.org/2000/svg">
<rect x="0.5" y="0.5" width="39" height="39" rx="19.5" fill="#ECF7F7"/>
<rect x="0.5" y="0.5" width="39" height="39" rx="19.5" stroke="url(#paint0_linear_140_999)"/>
<g clip-path="url(#clip0_140_999)">
<path d="M27.2752 18.7966C27.0005 18.5219 26.5552 18.5219 26.2807 18.7966L20.2558 24.8215C19.9811 25.096 19.9811 25.5413 20.2558 25.816L24.7745 30.3347C25.0492 30.6093 25.4943 30.6093 25.7689 30.3347L31.7938 24.3096C32.0685 24.0351 32.0685 23.59 31.7938 23.3153L27.2752 18.7966Z" fill="#E8AFA3"/>
<path d="M31.7941 23.3153L27.2755 18.7966C27.0008 18.5219 26.5555 18.5219 26.281 18.7966L23.2686 21.8091L28.7817 27.3222C30.2879 25.8159 31.7941 24.3095 31.7941 24.3095C32.0688 24.0351 32.0688 23.5899 31.7941 23.3153ZM17.2433 10.7535L18.7495 12.2597C18.8539 12.364 18.9884 12.4329 19.1341 12.4565C19.2798 12.4802 19.4292 12.4574 19.5612 12.3914L22.5737 10.8852C23.0322 10.657 23.0735 10.0758 22.7568 9.75904L21.2504 8.25286C21.146 8.14852 21.0115 8.07964 20.8659 8.05598C20.7202 8.03231 20.5708 8.05506 20.4388 8.121L17.4262 9.62723C17.0089 9.83597 16.8952 10.4054 17.2433 10.7535Z" fill="#D19188"/>
<path d="M14.2309 30.3347C14.5056 30.6093 14.9509 30.6092 15.2254 30.3347L19.5382 26.0218H20.7533C21.9124 26.0218 23.002 25.5704 23.8216 24.7509L28.5937 19.9788C29.3863 19.1861 29.3867 17.8967 28.5948 17.1037C28.5938 17.1026 28.5929 17.1018 28.592 17.1009C28.3997 16.9081 28.1704 16.7559 27.918 16.6534C28.1341 16.1068 28.1799 15.1824 27.4641 14.4666C27.2713 14.273 27.0415 14.1203 26.7884 14.0176C27.0043 13.4712 27.0501 12.5469 26.3347 11.8311C26.3344 11.8306 26.334 11.8302 26.3336 11.8299C26.1373 11.6338 25.9083 11.4825 25.6587 11.3816C25.8748 10.8351 25.9204 9.91057 25.2048 9.19479L25.2044 9.19441L25.2039 9.19389C24.4108 8.40086 23.1205 8.40086 22.3274 9.19389L8.20602 23.3154C7.93133 23.59 7.93133 24.0351 8.20602 24.3096L14.2309 30.3347Z" fill="#FFECE3"/>
<path d="M20.6819 14.3344C21.2706 13.7457 21.2706 12.7916 20.6819 12.2029L17.6767 9.1977C17.0882 8.60923 16.1339 8.60923 15.5454 9.1977C14.9569 9.78645 14.9569 10.7406 15.5454 11.3292L18.5505 14.3344C19.139 14.9229 20.0933 14.9229 20.6819 14.3344Z" fill="#E8AFA3"/>
<path d="M18.5505 16.4658C19.139 15.8773 19.139 14.9229 18.5505 14.3344L15.922 11.7058C15.3333 11.1173 14.3792 11.1173 13.7905 11.7058C13.202 12.2944 13.202 13.2486 13.7905 13.8373L16.4191 16.4658C17.0076 17.0543 17.962 17.0543 18.5505 16.4658Z" fill="#E8AFA3"/>
<path d="M16.419 18.5972C17.0075 18.0087 17.0075 17.0543 16.419 16.4658L14.5434 14.5903C13.9549 14.0018 13.0006 14.0018 12.4121 14.5903C11.8236 15.179 11.8236 16.1332 12.4121 16.7218L14.2875 18.5972C14.8761 19.1859 15.8303 19.1859 16.419 18.5972Z" fill="#E8AFA3"/>
<path d="M14.2874 20.7286C14.8761 20.1399 14.8761 19.1858 14.2874 18.5971L13.1651 17.4748C12.5767 16.8863 11.6223 16.8863 11.0338 17.4748C10.4451 18.0633 10.4451 19.0177 11.0338 19.6062L12.156 20.7286C12.7446 21.3171 13.6989 21.3171 14.2874 20.7286Z" fill="#E8AFA3"/>
<path d="M28.5946 17.1035C28.5937 17.1024 28.5928 17.1017 28.5919 17.1007C28.3995 16.9079 28.1703 16.7557 27.9179 16.6532C28.1339 16.1067 28.1797 15.1822 27.4639 14.4664C27.4619 14.4646 27.4601 14.4626 27.4583 14.4607C27.2667 14.2698 27.0389 14.119 26.7883 14.0173C26.9848 13.5203 27.04 12.711 26.5103 12.03L11.2183 27.3221L14.2307 30.3345C14.5054 30.6092 14.9507 30.6092 15.2252 30.3345L19.538 26.0217H20.7531C21.912 26.0217 23.0018 25.5702 23.8214 24.7507L28.5935 19.9786C29.3862 19.186 29.3864 17.8965 28.5946 17.1035Z" fill="#FFDCCD"/>
</g>
<defs>
<linearGradient id="paint0_linear_140_999" x1="0" y1="20" x2="40" y2="20" gradientUnits="userSpaceOnUse">
<stop stop-color="#4E9DAB"/>
<stop offset="1" stop-color="#336C79"/>
</linearGradient>
<clipPath id="clip0_140_999">
<rect width="24" height="24" fill="white" transform="translate(8 8)"/>
</clipPath>
</defs>
</svg>
