<svg width="40" height="40" viewBox="0 0 40 40" fill="none" xmlns="http://www.w3.org/2000/svg">
<rect x="0.5" y="0.5" width="39" height="39" rx="19.5" fill="#ECF7F7"/>
<rect x="0.5" y="0.5" width="39" height="39" rx="19.5" stroke="url(#paint0_linear_140_1423)"/>
<path d="M13.193 29.3481H18.0389C18.311 29.3481 18.572 29.4562 18.7644 29.6486C18.9568 29.841 19.0649 30.102 19.0649 30.3741C19.0649 30.6462 18.9568 30.9072 18.7644 31.0996C18.572 31.292 18.311 31.4001 18.0389 31.4001H11.2277C10.9798 31.4001 10.733 31.324 10.5442 31.1639C10.1134 30.7989 10.0637 30.1977 10.3651 29.7794L16.0454 21.8253H11.1994C10.9272 21.8253 10.6663 21.7172 10.4739 21.5248C10.2815 21.3324 10.1734 21.0714 10.1734 20.7993C10.1734 20.5272 10.2815 20.2662 10.4739 20.0738C10.6663 19.8814 10.9272 19.7733 11.1994 19.7733H18.0067C18.1747 19.7733 18.3437 19.804 18.4934 19.8796C18.6263 19.9457 18.7432 20.0398 18.8362 20.1554C18.9292 20.271 18.9961 20.4054 19.0322 20.5493C19.0683 20.6932 19.0728 20.8433 19.0454 20.9891C19.018 21.1349 18.9593 21.273 18.8734 21.394L13.193 29.3481ZM29.827 24.1646C29.827 24.2993 29.8004 24.4327 29.7489 24.5572C29.6973 24.6817 29.6217 24.7948 29.5265 24.8901C29.4312 24.9853 29.3181 25.0609 29.1936 25.1125C29.0691 25.164 28.9357 25.1906 28.801 25.1906H23.3304C23.1374 25.1909 22.9482 25.1365 22.7848 25.0337C22.6214 24.9309 22.4904 24.7839 22.4071 24.6098C22.3233 24.4358 22.2904 24.2417 22.3121 24.0499C22.3338 23.858 22.4094 23.6762 22.53 23.5255L26.6683 18.3511H23.3302C23.058 18.3511 22.7971 18.243 22.6047 18.0505C22.4123 17.8581 22.3042 17.5972 22.3042 17.3251C22.3042 17.0529 22.4123 16.792 22.6047 16.5996C22.7971 16.4071 23.058 16.2991 23.3302 16.2991H28.801C28.9939 16.2994 29.1828 16.3541 29.346 16.4569C29.5092 16.5597 29.6401 16.7065 29.7236 16.8803C29.8072 17.0542 29.84 17.2481 29.8183 17.4398C29.7967 17.6314 29.7214 17.8131 29.6011 17.9639L25.463 23.1383H28.801C28.9357 23.1383 29.0692 23.1649 29.1937 23.2165C29.3181 23.268 29.4313 23.3436 29.5265 23.4389C29.6218 23.5342 29.6974 23.6474 29.7489 23.7719C29.8005 23.8964 29.827 24.0298 29.827 24.1646ZM19.5365 14.3642C19.5364 14.5636 19.4572 14.7547 19.3162 14.8957C19.1752 15.0367 18.9839 15.1159 18.7846 15.1159H14.7756C14.6341 15.1161 14.4955 15.0763 14.3757 15.0011C14.2559 14.9258 14.1599 14.8182 14.0988 14.6906C14.0373 14.5631 14.0132 14.4208 14.0292 14.2801C14.0451 14.1395 14.1006 14.0062 14.189 13.8957L17.2217 10.1037H14.7756C14.5762 10.1037 14.3849 10.0245 14.2439 9.88346C14.1029 9.74245 14.0237 9.5512 14.0237 9.35177C14.0237 9.15235 14.1029 8.9611 14.2439 8.82009C14.3849 8.67907 14.5762 8.59985 14.7756 8.59985H18.7846C18.926 8.6 19.0645 8.64004 19.1841 8.71538C19.3038 8.79071 19.3998 8.89828 19.461 9.02572C19.5223 9.15317 19.5464 9.29531 19.5305 9.43582C19.5146 9.57632 19.4593 9.70949 19.3711 9.82001L16.3385 13.612H18.7846C18.8833 13.612 18.9811 13.6315 19.0724 13.6693C19.1636 13.7071 19.2465 13.7625 19.3163 13.8323C19.3862 13.9022 19.4415 13.9851 19.4793 14.0764C19.5171 14.1676 19.5365 14.2654 19.5365 14.3642Z" fill="#D9822B"/>
<defs>
<linearGradient id="paint0_linear_140_1423" x1="0" y1="20" x2="40" y2="20" gradientUnits="userSpaceOnUse">
<stop stop-color="#4E9DAB"/>
<stop offset="1" stop-color="#336C79"/>
</linearGradient>
</defs>
</svg>
