<svg width="87" height="80" viewBox="0 0 87 80" fill="none" xmlns="http://www.w3.org/2000/svg">
<path d="M50.5755 41.301C50.3239 41.4461 50.0309 41.5013 49.7441 41.4576C49.4574 41.4139 49.1937 41.2739 48.9961 41.0603C48.7984 40.8468 48.6784 40.5722 48.6555 40.2813C48.6326 39.9904 48.7082 39.7003 48.8699 39.4581C49.3161 39.1326 49.9341 38.6669 50.6748 38.0956C51.8885 37.1596 52.5076 36.6814 53.0442 36.1663C53.767 35.4852 54.4104 34.7235 54.9618 33.8958C55.9256 32.4143 55.9657 31.6085 55.9769 31.3986C55.987 30.9348 55.9114 30.4732 55.7538 30.0372C55.2239 28.5782 53.9009 27.8318 53.1591 27.4267C50.532 25.9923 47.7979 26.3369 46.5028 26.5187C45.4603 26.6646 44.438 26.9313 43.4563 27.3133C43.2029 27.4078 42.926 27.4179 42.6665 27.3423C42.4069 27.2667 42.1783 27.1093 42.0142 26.8932C41.8501 26.6772 41.7593 26.4139 41.755 26.142C41.7508 25.8701 41.8333 25.6041 41.9905 25.3829C42.3062 25.1237 42.6462 24.8959 43.0056 24.7028C43.3079 24.54 44.1212 24.136 46.051 23.9082C47.023 23.7755 48.0056 23.7379 48.9848 23.7959C49.9944 23.8644 55.2763 24.2247 57.5587 27.8812C58.0158 28.6067 58.3227 29.4175 58.4611 30.2651C58.7121 31.9575 58.1455 33.2954 57.784 34.1248C57.0032 35.9014 55.9022 36.9441 54.2869 38.4379C53.1356 39.4999 51.8937 40.4579 50.5755 41.301Z" fill="white"/>
<path d="M48.0801 38.5367C45.6766 37.3051 43.5909 35.5275 41.9882 33.3448C41.9101 33.1967 41.3189 32.0216 41.8767 30.8341C42.3909 29.7275 43.6793 29.071 45.0358 29.2819H52.1004C52.6144 29.3217 53.1066 29.5082 53.5191 29.8193C53.9316 30.1305 54.2474 30.5536 54.4295 31.0389C54.6115 31.5242 54.6523 32.0517 54.547 32.5595C54.4417 33.0673 54.1948 33.5344 53.835 33.906C52.2861 35.8636 50.3192 37.4456 48.0801 38.5345V38.5367Z" fill="white"/>
<path d="M47.2928 43.2034C47.4725 42.9503 47.5595 42.6424 47.5392 42.332C47.5189 42.0217 47.3924 41.728 47.1812 41.5008C46.6837 41.007 45.7913 41.0227 45.2626 41.613C44.2322 42.256 43.2518 42.9767 42.3299 43.769C41.269 44.6804 40.3766 45.4447 39.5065 46.723C38.9487 47.5345 38.2225 48.631 37.9269 50.2415C37.8154 50.815 37.6279 51.87 37.9269 53.0788C38.6966 56.1966 42.0666 57.613 42.891 57.9598C44.2296 58.521 45.3975 58.6557 46.2754 58.7544C48.0447 58.9531 49.3989 58.7769 50.4497 58.6422C51.1715 58.5479 51.6076 58.4278 52.48 58.1933C53.0043 58.0496 53.475 57.897 53.9469 57.512C54.11 57.3776 54.2594 57.2272 54.3931 57.0631C54.506 56.8204 54.5441 56.5491 54.5022 56.2845C54.4604 56.0198 54.3407 55.7738 54.1585 55.5783C53.9763 55.3827 53.74 55.2467 53.4802 55.1877C53.2203 55.1286 52.9488 55.1494 52.7008 55.2472C52.3336 55.418 51.957 55.5679 51.573 55.6961C49.9351 56.2238 48.2007 56.3772 46.4963 56.145C45.624 56.0328 44.794 55.9206 43.789 55.4638C43.0014 55.1035 40.8496 54.117 40.4045 52.172C40.0464 50.6007 40.9734 49.2112 41.6449 48.1989C42.4001 47.0631 43.5413 46.1551 45.8192 44.3403C46.4272 43.8577 46.9369 43.4694 47.2928 43.2034Z" fill="white"/>
<path d="M48.0805 48.6919C46.7418 49.1408 45.6319 49.5662 44.8086 49.8995C42.6178 50.7873 41.8592 51.2598 41.7622 51.9433C41.7344 52.1761 41.7731 52.412 41.8737 52.6234C42.092 52.9632 42.358 53.2694 42.6635 53.5325C43.1677 53.9635 43.7857 54.2778 45.0329 54.5538C46.1808 54.8078 47.3551 54.9209 48.53 54.8905C49.6455 54.8546 51.1704 54.7895 52.8169 53.9826C53.513 53.6459 54.6129 53.0847 54.6219 52.28C54.6105 51.9829 54.4914 51.7003 54.2872 51.4854C54.0489 51.2305 53.7841 51.0021 53.4974 50.8041C53.2163 50.61 52.9586 50.4764 52.1443 50.124C51.5006 49.8445 51.1794 49.7054 50.79 49.5561C49.9033 49.2181 48.9988 48.9296 48.0805 48.6919Z" fill="white"/>
<path d="M32.6239 45.7005C33.2467 45.7005 33.7517 45.1925 33.7517 44.5658C33.7517 43.9392 33.2467 43.4312 32.6239 43.4312C32.001 43.4312 31.4961 43.9392 31.4961 44.5658C31.4961 45.1925 32.001 45.7005 32.6239 45.7005Z" fill="white"/>
<path d="M58.6854 54.4393C59.3083 54.4393 59.8132 53.9313 59.8132 53.3046C59.8132 52.6779 59.3083 52.1699 58.6854 52.1699C58.0625 52.1699 57.5576 52.6779 57.5576 53.3046C57.5576 53.9313 58.0625 54.4393 58.6854 54.4393Z" fill="white"/>
<path d="M62.1815 51.2928C62.8044 51.2928 63.3093 50.7848 63.3093 50.1581C63.3093 49.5314 62.8044 49.0234 62.1815 49.0234C61.5586 49.0234 61.0537 49.5314 61.0537 50.1581C61.0537 50.7848 61.5586 51.2928 62.1815 51.2928Z" fill="white"/>
<path d="M63.9872 46.0721C64.61 46.0721 65.115 45.5641 65.115 44.9374C65.115 44.3107 64.61 43.8027 63.9872 43.8027C63.3643 43.8027 62.8594 44.3107 62.8594 44.9374C62.8594 45.5641 63.3643 46.0721 63.9872 46.0721Z" fill="white"/>
<path d="M63.9872 40.056C64.61 40.056 65.115 39.548 65.115 38.9213C65.115 38.2946 64.61 37.7866 63.9872 37.7866C63.3643 37.7866 62.8594 38.2946 62.8594 38.9213C62.8594 39.548 63.3643 40.056 63.9872 40.056Z" fill="white"/>
<path d="M32.3978 40.0247C33.0207 40.0247 33.5256 39.5167 33.5256 38.89C33.5256 38.2634 33.0207 37.7554 32.3978 37.7554C31.7749 37.7554 31.27 38.2634 31.27 38.89C31.27 39.5167 31.7749 40.0247 32.3978 40.0247Z" fill="white"/>
<path d="M48.0795 40.3654C48.1417 40.3654 48.1921 40.3146 48.1921 40.252C48.1921 40.1894 48.1417 40.1387 48.0795 40.1387C48.0172 40.1387 47.9668 40.1894 47.9668 40.252C47.9668 40.3146 48.0172 40.3654 48.0795 40.3654Z" fill="white"/>
<path d="M48.0795 39.5714C48.1417 39.5714 48.1921 39.5207 48.1921 39.4581C48.1921 39.3955 48.1417 39.3447 48.0795 39.3447C48.0172 39.3447 47.9668 39.3955 47.9668 39.4581C47.9668 39.5207 48.0172 39.5714 48.0795 39.5714Z" fill="white"/>
<path d="M48.0795 42.1818C48.1417 42.1818 48.1921 42.131 48.1921 42.0684C48.1921 42.0058 48.1417 41.9551 48.0795 41.9551C48.0172 41.9551 47.9668 42.0058 47.9668 42.0684C47.9668 42.131 48.0172 42.1818 48.0795 42.1818Z" fill="white"/>
<path d="M48.0795 47.0626C48.1417 47.0626 48.1921 47.0119 48.1921 46.9493C48.1921 46.8867 48.1417 46.8359 48.0795 46.8359C48.0172 46.8359 47.9668 46.8867 47.9668 46.9493C47.9668 47.0119 48.0172 47.0626 48.0795 47.0626Z" fill="white"/>
<path d="M34.2035 34.6898C34.8263 34.6898 35.3313 34.1818 35.3313 33.5551C35.3313 32.9284 34.8263 32.4204 34.2035 32.4204C33.5806 32.4204 33.0757 32.9284 33.0757 33.5551C33.0757 34.1818 33.5806 34.6898 34.2035 34.6898Z" fill="white"/>
<path d="M37.5877 30.3768C38.2106 30.3768 38.7155 29.8688 38.7155 29.2421C38.7155 28.6154 38.2106 28.1074 37.5877 28.1074C36.9649 28.1074 36.46 28.6154 36.46 29.2421C36.46 29.8688 36.9649 30.3768 37.5877 30.3768Z" fill="white"/>
<path d="M37.2143 4.26367C36.6372 4.2639 36.0732 4.43633 35.5935 4.75915C35.1138 5.08198 34.7401 5.54069 34.5196 6.07725C34.2992 6.61382 34.2418 7.20413 34.3549 7.77349C34.4679 8.34285 34.7463 8.86569 35.1547 9.27585C35.5632 9.68601 36.0834 9.96507 36.6495 10.0777C37.2156 10.1904 37.8022 10.1315 38.3351 9.90868C38.868 9.68582 39.3232 9.30895 39.6431 8.82574C39.9631 8.34253 40.1334 7.7747 40.1325 7.19409C40.1316 6.4162 39.8237 5.6705 39.2765 5.12097C38.7292 4.57145 37.9875 4.26308 37.2143 4.26367ZM37.2143 7.78331C37.0991 7.78331 36.9866 7.74895 36.8908 7.68458C36.795 7.6202 36.7204 7.5287 36.6763 7.42165C36.6323 7.3146 36.6207 7.19681 36.6432 7.08316C36.6657 6.96951 36.7211 6.86512 36.8026 6.78319C36.884 6.70126 36.9877 6.64546 37.1007 6.62285C37.2137 6.60025 37.3307 6.61185 37.4371 6.65619C37.5435 6.70053 37.6345 6.77563 37.6985 6.87197C37.7625 6.96831 37.7966 7.08158 37.7966 7.19745C37.7966 7.35283 37.7353 7.50185 37.6261 7.61172C37.5168 7.72159 37.3687 7.78331 37.2143 7.78331Z" fill="#F4F4F4"/>
<path d="M81.7093 26.5744C78.4509 18.8455 72.6542 12.4763 65.2883 8.53149C57.9224 4.58672 49.4338 3.30552 41.2416 4.90211C40.6865 3.91975 39.795 3.17417 38.7336 2.80446C37.6722 2.43476 36.5134 2.4662 35.4734 2.89291C34.4334 3.31961 33.5831 4.11244 33.0814 5.12347C32.5796 6.1345 32.4606 7.29465 32.7465 8.38748C33.0325 9.4803 33.7038 10.4311 34.6353 11.0626C35.5668 11.694 36.6948 11.9629 37.8088 11.8191C38.9229 11.6754 39.9469 11.1287 40.6898 10.2811C41.4327 9.43358 41.8437 8.34304 41.8462 7.21299C43.9423 6.8126 46.0712 6.61119 48.2047 6.61142C66.9454 6.61142 82.1957 21.9537 82.1957 40.8123C82.1957 59.6709 66.9521 75.011 48.2092 75.011C34.6534 75.011 22.9282 66.9863 17.4733 55.4105C17.4621 55.4105 17.3394 55.1075 17.2502 54.9021C17.7487 54.8532 18.2414 54.7562 18.7215 54.6125C19.3943 54.4109 20.0404 54.1283 20.6458 53.7708C23.091 52.3252 24.5077 49.7382 24.7788 46.1816C25.022 42.9492 24.2712 39.7237 23.805 38.1008L23.7592 37.9369C23.6903 37.6962 23.5597 37.478 23.3805 37.3041C23.2014 37.1302 22.98 37.0067 22.7385 36.9459C21.9744 34.2455 20.2676 28.2164 18.8164 23.1041C20.6971 19.0873 22.1629 15.965 22.3169 15.6754C22.6203 15.094 23.3208 14.2568 23.6008 13.938C26.0706 11.8808 27.967 13.4038 28.1744 13.5834L29.9068 14.9223C29.8332 15.0701 29.8102 15.2382 29.8412 15.4006C29.8723 15.5629 29.9557 15.7104 30.0786 15.8202L31.1049 16.6832C31.2987 16.8547 31.4354 17.0819 31.4965 17.3342C31.5494 17.539 31.6428 17.731 31.771 17.8987C31.8992 18.0664 32.0596 18.2065 32.2427 18.3106C32.8875 18.6821 33.752 18.5351 34.3299 17.9739C35.1275 17.195 35.1174 15.9593 34.3578 15.3174C34.1126 15.1149 33.8133 14.9899 33.4977 14.9582C33.2164 14.9386 32.9478 14.8329 32.728 14.6552L31.7352 13.8224C31.6036 13.7204 31.4422 13.6651 31.2761 13.6651C31.1101 13.6651 30.9486 13.7204 30.8171 13.8224L29.1003 12.4947C28.0685 11.5879 25.4258 10.5272 22.6549 12.8729L22.5857 12.9403C22.5422 12.9896 21.5259 14.121 21.063 15.0076C20.9191 15.2826 19.7434 17.782 18.2274 21.0155C17.2546 17.5957 16.4961 14.9549 16.399 14.6619C16.0833 13.7124 15.2623 12.4296 15.2277 12.3757L15.1697 12.2994C12.8126 9.53061 10.0328 10.1513 8.86927 10.8763L6.96174 11.91C6.84838 11.7881 6.6979 11.7077 6.53407 11.6815C6.37024 11.6553 6.20239 11.6847 6.05705 11.7652L4.94153 12.4274C4.69596 12.5651 4.41517 12.626 4.13501 12.6024C3.81896 12.5817 3.50395 12.6563 3.23033 12.8168C2.37249 13.3252 2.16835 14.543 2.82986 15.4431C3.30953 16.094 4.13947 16.3735 4.83779 16.1165C5.03528 16.043 5.21606 15.9304 5.36937 15.7852C5.52269 15.64 5.6454 15.4652 5.7302 15.2714C5.83052 15.0325 6.00252 14.8312 6.22215 14.6956L7.37448 14.0098C7.51401 13.9209 7.62034 13.788 7.67685 13.6319C7.73336 13.4757 7.73686 13.3051 7.68682 13.1468L9.55978 12.1322L9.57986 12.1232L9.59882 12.1109C9.83308 11.9661 11.9492 10.7641 14.0542 13.2006C14.284 13.562 14.8351 14.5014 15.0459 15.1221C15.1485 15.4318 16.0923 18.7349 17.2992 22.9863C15.0548 27.7887 12.4055 33.4498 11.2241 35.9829C10.9752 36.0045 10.7362 36.0915 10.5311 36.235C10.326 36.3786 10.1618 36.5738 10.0551 36.8011L9.99483 36.9246C9.26974 38.4644 8.01032 41.5261 7.73479 44.7562C7.35886 49.158 8.96186 52.3735 12.3597 54.0581C12.5215 54.1367 12.6866 54.2096 12.8506 54.2826C12.932 54.2949 13.0112 54.3106 13.0893 54.3297C13.5678 54.4532 14.0196 54.6137 14.506 54.6978C16.3254 58.6653 19.4388 63.6047 22.4987 66.6832C28.4638 72.6818 36.3158 76.4078 44.7105 77.2236C53.1053 78.0394 61.5209 75.8942 68.5168 71.1552C75.5128 66.4162 80.654 59.3781 83.0607 51.2455C85.4673 43.1129 84.9896 34.3916 81.7093 26.5744ZM37.2146 10.8617C36.4958 10.8615 35.7932 10.6469 35.1955 10.2452C34.5978 9.84338 34.1318 9.2724 33.8565 8.60435C33.5812 7.93629 33.5088 7.20112 33.6485 6.4917C33.7882 5.78228 34.1338 5.13043 34.6415 4.6185C35.1493 4.10656 35.7964 3.7575 36.5012 3.6154C37.206 3.4733 37.9369 3.54454 38.6015 3.82013C39.2661 4.09571 39.8346 4.56327 40.2352 5.16376C40.6358 5.76424 40.8505 6.4707 40.8523 7.19391C40.852 8.1647 40.4687 9.09568 39.7867 9.78234C39.1046 10.469 38.1795 10.8552 37.2146 10.8561V10.8617ZM12.5706 38.1423L12.633 38.0087C12.7398 37.782 12.7846 37.5309 12.7631 37.281C12.7415 37.0311 12.6543 36.7915 12.5103 36.5867C14.0799 33.2298 16.0967 28.9133 17.8949 25.0693C19.054 29.1602 20.3591 33.7641 21.372 37.3398C21.197 37.5202 21.0728 37.7441 21.0118 37.9885C20.9509 38.233 20.9554 38.4894 21.0251 38.7315L21.0686 38.8875C21.5326 40.5014 22.4741 44.4453 21.6922 47.626C19.9308 49.1748 18.1415 49.8909 16.3466 49.7506C13.6905 49.5407 11.6034 47.4891 10.5214 46.1659C10.45 43.0256 11.8868 39.5878 12.5706 38.1423ZM15.3482 51.9818C14.9144 51.9264 14.4872 51.8271 14.0732 51.6855C13.9175 51.6293 13.7648 51.5648 13.6158 51.4925C11.7339 50.5598 10.8783 48.9986 10.6139 47.2478C11.8499 48.5867 13.8177 50.1838 16.2953 50.3802C17.6908 50.4924 19.0752 50.14 20.4383 49.3331C20.7463 49.1496 21.0442 48.9495 21.3307 48.7338C20.735 50.1647 19.6731 51.332 17.8927 51.8763C17.4877 52.0043 17.0675 52.0772 16.6433 52.0929C16.2092 52.0943 15.7758 52.0572 15.3482 51.9818ZM37.2124 4.2635C36.6354 4.26416 36.0715 4.43697 35.5922 4.76007C35.1128 5.08316 34.7394 5.54203 34.5193 6.07863C34.2992 6.61524 34.2421 7.20547 34.3554 7.77469C34.4687 8.3439 34.7473 8.86653 35.1558 9.27647C35.5643 9.68641 36.0845 9.96524 36.6506 10.0777C37.2167 10.1902 37.8032 10.1312 38.3359 9.90828C38.8687 9.68536 39.3237 9.30849 39.6436 8.82533C39.9634 8.34217 40.1337 7.77443 40.1328 7.19391C40.1319 6.41602 39.824 5.67033 39.2768 5.1208C38.7295 4.57127 37.9878 4.2629 37.2146 4.2635H37.2124ZM37.2124 7.78314C37.0972 7.78314 36.9846 7.74878 36.8889 7.6844C36.7931 7.62003 36.7185 7.52853 36.6744 7.42148C36.6303 7.31443 36.6188 7.19663 36.6413 7.08298C36.6637 6.96934 36.7192 6.86495 36.8006 6.78301C36.8821 6.70108 36.9858 6.64528 37.0988 6.62268C37.2117 6.60007 37.3288 6.61167 37.4352 6.65602C37.5416 6.70036 37.6326 6.77545 37.6965 6.87179C37.7605 6.96814 37.7947 7.08141 37.7947 7.19728C37.7947 7.35227 37.7336 7.50095 37.6249 7.61075C37.5162 7.72056 37.3687 7.78254 37.2146 7.78314H37.2124Z" fill="white"/>
<path d="M37.2143 4.26367C36.6372 4.2639 36.0732 4.43633 35.5935 4.75915C35.1138 5.08198 34.7401 5.54069 34.5196 6.07725C34.2992 6.61382 34.2418 7.20413 34.3549 7.77349C34.4679 8.34285 34.7463 8.86569 35.1547 9.27585C35.5632 9.68601 36.0834 9.96507 36.6495 10.0777C37.2156 10.1904 37.8022 10.1315 38.3351 9.90868C38.868 9.68582 39.3232 9.30895 39.6431 8.82574C39.9631 8.34253 40.1334 7.7747 40.1325 7.19409C40.1316 6.4162 39.8237 5.6705 39.2765 5.12097C38.7292 4.57145 37.9875 4.26308 37.2143 4.26367ZM37.2143 7.78331C37.0991 7.78331 36.9866 7.74895 36.8908 7.68458C36.795 7.6202 36.7204 7.5287 36.6763 7.42165C36.6323 7.3146 36.6207 7.19681 36.6432 7.08316C36.6657 6.96951 36.7211 6.86512 36.8026 6.78319C36.884 6.70126 36.9877 6.64546 37.1007 6.62285C37.2137 6.60025 37.3307 6.61185 37.4371 6.65619C37.5435 6.70053 37.6345 6.77563 37.6985 6.87197C37.7625 6.96831 37.7966 7.08158 37.7966 7.19745C37.7966 7.35283 37.7353 7.50185 37.6261 7.61172C37.5168 7.72159 37.3687 7.78331 37.2143 7.78331Z" fill="white"/>
<path d="M48.1851 15.4196C48.3399 15.4183 48.493 15.3863 48.6355 15.3254C48.7781 15.2646 48.9073 15.1761 49.0159 15.065C49.1244 14.9539 49.2102 14.8224 49.2682 14.6779C49.3263 14.5335 49.3554 14.379 49.3541 14.2232L49.3128 9.47794C49.3115 9.32215 49.2796 9.16816 49.219 9.02477C49.1585 8.88138 49.0705 8.75139 48.96 8.64222C48.8495 8.53305 48.7188 8.44684 48.5752 8.38852C48.4316 8.33019 48.278 8.30089 48.1231 8.30229C47.9683 8.30369 47.8153 8.33576 47.6727 8.39668C47.5302 8.45759 47.401 8.54615 47.2925 8.65729C47.184 8.76844 47.0983 8.90001 47.0403 9.04447C46.9824 9.18894 46.9532 9.34348 46.9546 9.49926L46.9959 14.2434C46.9972 14.3992 47.029 14.5532 47.0895 14.6966C47.15 14.84 47.2379 14.97 47.3484 15.0793C47.4588 15.1885 47.5895 15.2748 47.7331 15.3332C47.8766 15.3915 48.0302 15.4209 48.1851 15.4196Z" fill="white"/>
<path d="M34.5418 62.6691L32.2193 66.7993C32.0653 67.0731 32.0257 67.3973 32.1093 67.7005C32.1929 68.0037 32.3927 68.261 32.6649 68.416C32.9371 68.5709 33.2593 68.6107 33.5607 68.5266C33.862 68.4425 34.1178 68.2415 34.2718 67.9676L36.5943 63.8374C36.7483 63.5636 36.7879 63.2394 36.7043 62.9362C36.6207 62.633 36.4209 62.3756 36.1487 62.2207C35.8765 62.0658 35.5543 62.026 35.2529 62.11C34.9516 62.1941 34.6958 62.3952 34.5418 62.6691Z" fill="white"/>
<path d="M62.2513 18.2153L64.5738 14.0851C64.6537 13.9493 64.7059 13.7988 64.7273 13.6425C64.7487 13.4862 64.7388 13.3272 64.6984 13.1747C64.6579 13.0223 64.5876 12.8795 64.4917 12.7547C64.3957 12.6299 64.2759 12.5256 64.1394 12.448C64.0028 12.3703 63.8523 12.3209 63.6965 12.3025C63.5408 12.2841 63.3829 12.2972 63.2322 12.341C63.0815 12.3847 62.9411 12.4583 62.819 12.5573C62.6969 12.6564 62.5957 12.7789 62.5213 12.9178L60.1988 17.048C60.0448 17.3219 60.0052 17.646 60.0888 17.9492C60.1724 18.2524 60.3722 18.5098 60.6444 18.6647C60.9166 18.8197 61.2388 18.8595 61.5402 18.7754C61.8415 18.6913 62.0973 18.4902 62.2513 18.2164V18.2153Z" fill="white"/>
<path d="M80.3404 40.1626C80.339 40.0068 80.3072 39.8528 80.2468 39.7094C80.1863 39.5659 80.0983 39.4359 79.9879 39.3267C79.8775 39.2175 79.7468 39.1312 79.6032 39.0728C79.4596 39.0144 79.3061 38.985 79.1512 38.9864L74.4337 39.0279C74.121 39.0307 73.8222 39.1584 73.603 39.3829C73.3839 39.6074 73.2624 39.9102 73.2652 40.2249C73.268 40.5395 73.3949 40.8401 73.618 41.0606C73.8411 41.2811 74.1422 41.4033 74.4549 41.4005L79.1713 41.359C79.3261 41.3577 79.4792 41.3257 79.6218 41.2648C79.7643 41.204 79.8936 41.1155 80.0021 41.0044C80.1107 40.8933 80.1964 40.7618 80.2545 40.6173C80.3125 40.4729 80.3417 40.3184 80.3404 40.1626Z" fill="white"/>
<path d="M74.3068 23.7106L70.243 26.118C69.9735 26.2777 69.7781 26.5386 69.6997 26.8432C69.6214 27.1479 69.6665 27.4714 69.8252 27.7426C69.984 28.0137 70.2433 28.2104 70.5461 28.2892C70.8489 28.368 71.1704 28.3226 71.44 28.1629L75.5038 25.7543C75.6403 25.6769 75.7601 25.5728 75.8562 25.4483C75.9523 25.3237 76.0227 25.1811 76.0634 25.0288C76.1041 24.8765 76.1142 24.7176 76.0931 24.5613C76.072 24.4051 76.0201 24.2546 75.9406 24.1187C75.861 23.9829 75.7553 23.8643 75.6297 23.7701C75.504 23.6758 75.361 23.6076 75.2089 23.5696C75.0567 23.5316 74.8986 23.5245 74.7437 23.5487C74.5889 23.5729 74.4403 23.6279 74.3068 23.7106Z" fill="white"/>
<path d="M71.6494 52.3115C71.3772 52.1566 71.055 52.1168 70.7537 52.2009C70.4523 52.285 70.1965 52.486 70.0425 52.7599C69.8885 53.0337 69.849 53.3579 69.9325 53.6611C70.0161 53.9643 70.216 54.2217 70.4882 54.3766L74.5933 56.7133C74.728 56.79 74.8765 56.8393 75.0302 56.8583C75.1839 56.8773 75.3398 56.8656 75.489 56.824C75.6382 56.7823 75.7778 56.7115 75.8999 56.6156C76.0219 56.5197 76.1239 56.4005 76.2002 56.2649C76.2764 56.1293 76.3254 55.98 76.3443 55.8253C76.3631 55.6707 76.3515 55.5138 76.3101 55.3637C76.2688 55.2136 76.1984 55.0731 76.1031 54.9504C76.0077 54.8276 75.8893 54.7249 75.7545 54.6482L71.6494 52.3115Z" fill="white"/>
<path d="M25.3512 52.7222L21.2873 55.1308C21.0243 55.2936 20.8353 55.5537 20.7608 55.8553C20.6864 56.1568 20.7325 56.4757 20.8893 56.7434C21.0461 57.0111 21.301 57.2062 21.5992 57.2868C21.8975 57.3675 22.2153 57.3271 22.4843 57.1745L26.5437 54.7671C26.6771 54.6881 26.7938 54.5833 26.887 54.4589C26.9802 54.3344 27.0482 54.1927 27.0869 54.0419C27.1257 53.891 27.1346 53.734 27.1131 53.5797C27.0915 53.4253 27.04 53.2768 26.9614 53.1426C26.8828 53.0083 26.7787 52.8909 26.655 52.7971C26.5313 52.7033 26.3905 52.635 26.2406 52.5959C25.9378 52.5171 25.6162 52.5625 25.3467 52.7222H25.3512Z" fill="white"/>
<path d="M61.0187 62.0034C60.7491 62.163 60.5537 62.4237 60.4752 62.7283C60.3968 63.0328 60.4418 63.3563 60.6003 63.6274L62.9943 67.7161C63.153 67.9876 63.4124 68.1845 63.7154 68.2635C64.0184 68.3425 64.3403 68.2972 64.6101 68.1375C64.8799 67.9778 65.0756 67.7168 65.1542 67.412C65.2327 67.1071 65.1877 66.7833 65.029 66.5118L62.6351 62.4232C62.5565 62.2886 62.4524 62.1709 62.3286 62.0769C62.2047 61.983 62.0637 61.9145 61.9135 61.8755C61.7633 61.8365 61.607 61.8277 61.4534 61.8497C61.2999 61.8716 61.1521 61.9239 61.0187 62.0034Z" fill="white"/>
<path d="M48.6124 65.4644C48.4575 65.4656 48.3044 65.4975 48.1619 65.5583C48.0193 65.6191 47.8901 65.7076 47.7816 65.8187C47.6731 65.9299 47.5875 66.0615 47.5296 66.206C47.4717 66.3505 47.4428 66.505 47.4444 66.6608L47.4846 71.406C47.4859 71.5618 47.5178 71.7158 47.5784 71.8592C47.6389 72.0026 47.7269 72.1326 47.8374 72.2418C47.9479 72.3509 48.0786 72.4371 48.2222 72.4955C48.3658 72.5538 48.5194 72.5831 48.6743 72.5817C48.8291 72.5803 48.9822 72.5482 49.1247 72.4873C49.2672 72.4264 49.3964 72.3378 49.5049 72.2267C49.6134 72.1155 49.6991 71.984 49.7571 71.8395C49.815 71.695 49.8442 71.5405 49.8428 71.3847L49.8015 66.6395C49.7985 66.325 49.6716 66.0246 49.4487 65.8043C49.2257 65.584 48.9249 65.4617 48.6124 65.4644Z" fill="white"/>
</svg>
